<svg xmlns="http://www.w3.org/2000/svg" viewBox="0 0 900 675" width="900" height="675" preserveAspectRatio="xMidYMid slice" role="img" aria-label="Steilküste und Ostseestrand bei Ahrenshoop"><title>Steilküste und Ostseestrand bei Ahrenshoop</title><defs><linearGradient id="skyC" x1="0" y1="0" x2="0" y2="1"><stop offset="0%" stop-color="#3d7d9c"/><stop offset="52%" stop-color="#7fb0c4"/><stop offset="100%" stop-color="#cfe2e4"/></linearGradient><linearGradient id="seaC" x1="0" y1="0" x2="0" y2="1"><stop offset="0%" stop-color="#5b9aa8"/><stop offset="100%" stop-color="#184c5b"/></linearGradient><radialGradient id="glowC" cx="50%" cy="50%" r="50%"><stop offset="0%" stop-color="#ffd9a0" stop-opacity=".85"/><stop offset="45%" stop-color="#ffd9a0" stop-opacity=".22"/><stop offset="100%" stop-color="#ffd9a0" stop-opacity="0"/></radialGradient><linearGradient id="glitC" x1="0" y1="0" x2="0" y2="1"><stop offset="0%" stop-color="#ffd9a0" stop-opacity=".55"/><stop offset="100%" stop-color="#ffd9a0" stop-opacity="0"/></linearGradient><filter id="softC" filterUnits="userSpaceOnUse" x="-120" y="-120" width="1140" height="915"><feGaussianBlur stdDeviation="14"/></filter><filter id="soft2C" filterUnits="userSpaceOnUse" x="-120" y="-120" width="1140" height="915"><feGaussianBlur stdDeviation="5"/></filter></defs><rect width="900" height="675" fill="url(#skyC)"/><g filter="url(#softC)"><ellipse cx="457" cy="108" rx="180" ry="14" fill="#ffffff" opacity="0.59"/><ellipse cx="511" cy="88" rx="99" ry="17" fill="#ffffff" opacity="0.28"/><ellipse cx="395" cy="154" rx="188" ry="21" fill="#ffffff" opacity="0.40"/><ellipse cx="452" cy="124" rx="104" ry="26" fill="#ffffff" opacity="0.34"/><ellipse cx="235" cy="60" rx="102" ry="9" fill="#ffffff" opacity="0.40"/><ellipse cx="266" cy="47" rx="56" ry="11" fill="#ffffff" opacity="0.40"/><ellipse cx="957" cy="189" rx="216" ry="17" fill="#ffffff" opacity="0.43"/><ellipse cx="1022" cy="166" rx="119" ry="20" fill="#ffffff" opacity="0.49"/><ellipse cx="157" cy="164" rx="130" ry="11" fill="#ffffff" opacity="0.50"/><ellipse cx="196" cy="148" rx="71" ry="13" fill="#ffffff" opacity="0.51"/><ellipse cx="705" cy="166" rx="147" ry="11" fill="#ffffff" opacity="0.60"/><ellipse cx="749" cy="150" rx="81" ry="14" fill="#ffffff" opacity="0.40"/><ellipse cx="691" cy="55" rx="100" ry="8" fill="#ffffff" opacity="0.41"/><ellipse cx="721" cy="43" rx="55" ry="10" fill="#ffffff" opacity="0.31"/></g><rect y="268" width="900" height="407" fill="url(#seaC)"/><path d="M765,274.0 q9,-2.2 17,0" stroke="#a9c8d0" stroke-width="0.8" fill="none" stroke-linecap="round" opacity="0.09"/><path d="M1,274.0 q7,-2.2 15,0" stroke="#a9c8d0" stroke-width="0.8" fill="none" stroke-linecap="round" opacity="0.13"/><path d="M247,274.0 q5,-2.2 10,0" stroke="#a9c8d0" stroke-width="0.8" fill="none" stroke-linecap="round" opacity="0.15"/><path d="M100,283.7 q5,-2.5 9,0" stroke="#a9c8d0" stroke-width="1.0" fill="none" stroke-linecap="round" opacity="0.12"/><path d="M404,283.7 q15,-2.5 30,0" stroke="#a9c8d0" stroke-width="1.0" fill="none" stroke-linecap="round" opacity="0.15"/><path d="M172,283.7 q16,-2.5 33,0" stroke="#a9c8d0" stroke-width="1.0" fill="none" stroke-linecap="round" opacity="0.14"/><path d="M694,298.6 q8,-2.7 15,0" stroke="#a9c8d0" stroke-width="1.1" fill="none" stroke-linecap="round" opacity="0.11"/><path d="M285,298.6 q17,-2.7 35,0" stroke="#a9c8d0" stroke-width="1.1" fill="none" stroke-linecap="round" opacity="0.16"/><path d="M836,298.6 q8,-2.7 16,0" stroke="#a9c8d0" stroke-width="1.1" fill="none" stroke-linecap="round" opacity="0.14"/><path d="M842,298.6 q12,-2.7 25,0" stroke="#a9c8d0" stroke-width="1.1" fill="none" stroke-linecap="round" opacity="0.16"/><path d="M172,316.6 q12,-3.0 24,0" stroke="#a9c8d0" stroke-width="1.3" fill="none" stroke-linecap="round" opacity="0.21"/><path d="M549,316.6 q20,-3.0 39,0" stroke="#a9c8d0" stroke-width="1.3" fill="none" stroke-linecap="round" opacity="0.18"/><path d="M76,316.6 q24,-3.0 47,0" stroke="#a9c8d0" stroke-width="1.3" fill="none" stroke-linecap="round" opacity="0.16"/><path d="M576,316.6 q22,-3.0 43,0" stroke="#a9c8d0" stroke-width="1.3" fill="none" stroke-linecap="round" opacity="0.18"/><path d="M401,316.6 q18,-3.0 37,0" stroke="#a9c8d0" stroke-width="1.3" fill="none" stroke-linecap="round" opacity="0.18"/><path d="M851,336.8 q16,-3.3 32,0" stroke="#a9c8d0" stroke-width="1.5" fill="none" stroke-linecap="round" opacity="0.16"/><path d="M252,336.8 q12,-3.3 24,0" stroke="#a9c8d0" stroke-width="1.5" fill="none" stroke-linecap="round" opacity="0.15"/><path d="M501,336.8 q20,-3.3 41,0" stroke="#a9c8d0" stroke-width="1.5" fill="none" stroke-linecap="round" opacity="0.14"/><path d="M790,336.8 q12,-3.3 24,0" stroke="#a9c8d0" stroke-width="1.5" fill="none" stroke-linecap="round" opacity="0.16"/><path d="M345,336.8 q21,-3.3 43,0" stroke="#a9c8d0" stroke-width="1.5" fill="none" stroke-linecap="round" opacity="0.15"/><path d="M554,336.8 q28,-3.3 57,0" stroke="#a9c8d0" stroke-width="1.5" fill="none" stroke-linecap="round" opacity="0.16"/><path d="M236,358.9 q22,-3.6 44,0" stroke="#a9c8d0" stroke-width="1.7" fill="none" stroke-linecap="round" opacity="0.24"/><path d="M366,358.9 q8,-3.6 16,0" stroke="#a9c8d0" stroke-width="1.7" fill="none" stroke-linecap="round" opacity="0.22"/><path d="M53,358.9 q26,-3.6 52,0" stroke="#a9c8d0" stroke-width="1.7" fill="none" stroke-linecap="round" opacity="0.15"/><path d="M513,358.9 q19,-3.6 38,0" stroke="#a9c8d0" stroke-width="1.7" fill="none" stroke-linecap="round" opacity="0.20"/><path d="M208,358.9 q9,-3.6 17,0" stroke="#a9c8d0" stroke-width="1.7" fill="none" stroke-linecap="round" opacity="0.23"/><path d="M847,358.9 q20,-3.6 41,0" stroke="#a9c8d0" stroke-width="1.7" fill="none" stroke-linecap="round" opacity="0.15"/><path d="M511,358.9 q23,-3.6 46,0" stroke="#a9c8d0" stroke-width="1.7" fill="none" stroke-linecap="round" opacity="0.20"/><path d="M312,382.5 q10,-3.8 20,0" stroke="#a9c8d0" stroke-width="1.8" fill="none" stroke-linecap="round" opacity="0.19"/><path d="M745,382.5 q13,-3.8 25,0" stroke="#a9c8d0" stroke-width="1.8" fill="none" stroke-linecap="round" opacity="0.17"/><path d="M806,382.5 q9,-3.8 18,0" stroke="#a9c8d0" stroke-width="1.8" fill="none" stroke-linecap="round" opacity="0.27"/><path d="M435,382.5 q26,-3.8 53,0" stroke="#a9c8d0" stroke-width="1.8" fill="none" stroke-linecap="round" opacity="0.24"/><path d="M197,382.5 q10,-3.8 19,0" stroke="#a9c8d0" stroke-width="1.8" fill="none" stroke-linecap="round" opacity="0.22"/><path d="M792,382.5 q11,-3.8 23,0" stroke="#a9c8d0" stroke-width="1.8" fill="none" stroke-linecap="round" opacity="0.23"/><path d="M528,382.5 q15,-3.8 29,0" stroke="#a9c8d0" stroke-width="1.8" fill="none" stroke-linecap="round" opacity="0.26"/><path d="M791,407.6 q29,-4.1 58,0" stroke="#a9c8d0" stroke-width="2.0" fill="none" stroke-linecap="round" opacity="0.27"/><path d="M818,407.6 q26,-4.1 52,0" stroke="#a9c8d0" stroke-width="2.0" fill="none" stroke-linecap="round" opacity="0.28"/><path d="M158,407.6 q18,-4.1 35,0" stroke="#a9c8d0" stroke-width="2.0" fill="none" stroke-linecap="round" opacity="0.19"/><path d="M719,407.6 q31,-4.1 62,0" stroke="#a9c8d0" stroke-width="2.0" fill="none" stroke-linecap="round" opacity="0.24"/><path d="M274,407.6 q40,-4.1 79,0" stroke="#a9c8d0" stroke-width="2.0" fill="none" stroke-linecap="round" opacity="0.20"/><path d="M604,407.6 q20,-4.1 40,0" stroke="#a9c8d0" stroke-width="2.0" fill="none" stroke-linecap="round" opacity="0.23"/><path d="M300,407.6 q38,-4.1 75,0" stroke="#a9c8d0" stroke-width="2.0" fill="none" stroke-linecap="round" opacity="0.28"/><path d="M452,407.6 q31,-4.1 62,0" stroke="#a9c8d0" stroke-width="2.0" fill="none" stroke-linecap="round" opacity="0.30"/><path d="M794,434.0 q33,-4.4 65,0" stroke="#a9c8d0" stroke-width="2.2" fill="none" stroke-linecap="round" opacity="0.32"/><path d="M367,434.0 q34,-4.4 68,0" stroke="#a9c8d0" stroke-width="2.2" fill="none" stroke-linecap="round" opacity="0.22"/><path d="M294,434.0 q42,-4.4 83,0" stroke="#a9c8d0" stroke-width="2.2" fill="none" stroke-linecap="round" opacity="0.31"/><path d="M164,434.0 q20,-4.4 39,0" stroke="#a9c8d0" stroke-width="2.2" fill="none" stroke-linecap="round" opacity="0.31"/><path d="M98,434.0 q32,-4.4 64,0" stroke="#a9c8d0" stroke-width="2.2" fill="none" stroke-linecap="round" opacity="0.24"/><path d="M361,434.0 q18,-4.4 35,0" stroke="#a9c8d0" stroke-width="2.2" fill="none" stroke-linecap="round" opacity="0.27"/><path d="M799,434.0 q33,-4.4 66,0" stroke="#a9c8d0" stroke-width="2.2" fill="none" stroke-linecap="round" opacity="0.32"/><path d="M258,434.0 q20,-4.4 41,0" stroke="#a9c8d0" stroke-width="2.2" fill="none" stroke-linecap="round" opacity="0.32"/><path d="M652,434.0 q28,-4.4 56,0" stroke="#a9c8d0" stroke-width="2.2" fill="none" stroke-linecap="round" opacity="0.20"/><path d="M223,461.6 q18,-4.7 35,0" stroke="#a9c8d0" stroke-width="2.4" fill="none" stroke-linecap="round" opacity="0.25"/><path d="M772,461.6 q27,-4.7 54,0" stroke="#a9c8d0" stroke-width="2.4" fill="none" stroke-linecap="round" opacity="0.30"/><path d="M858,461.6 q29,-4.7 58,0" stroke="#a9c8d0" stroke-width="2.4" fill="none" stroke-linecap="round" opacity="0.34"/><path d="M143,461.6 q46,-4.7 91,0" stroke="#a9c8d0" stroke-width="2.4" fill="none" stroke-linecap="round" opacity="0.24"/><path d="M105,461.6 q12,-4.7 25,0" stroke="#a9c8d0" stroke-width="2.4" fill="none" stroke-linecap="round" opacity="0.32"/><path d="M589,461.6 q13,-4.7 26,0" stroke="#a9c8d0" stroke-width="2.4" fill="none" stroke-linecap="round" opacity="0.19"/><path d="M14,461.6 q41,-4.7 82,0" stroke="#a9c8d0" stroke-width="2.4" fill="none" stroke-linecap="round" opacity="0.28"/><path d="M319,461.6 q42,-4.7 85,0" stroke="#a9c8d0" stroke-width="2.4" fill="none" stroke-linecap="round" opacity="0.26"/><path d="M775,461.6 q44,-4.7 89,0" stroke="#a9c8d0" stroke-width="2.4" fill="none" stroke-linecap="round" opacity="0.32"/><path d="M742,461.6 q32,-4.7 64,0" stroke="#a9c8d0" stroke-width="2.4" fill="none" stroke-linecap="round" opacity="0.32"/><path d="M597,490.3 q32,-4.9 65,0" stroke="#a9c8d0" stroke-width="2.5" fill="none" stroke-linecap="round" opacity="0.31"/><path d="M638,490.3 q19,-4.9 38,0" stroke="#a9c8d0" stroke-width="2.5" fill="none" stroke-linecap="round" opacity="0.26"/><path d="M430,490.3 q42,-4.9 84,0" stroke="#a9c8d0" stroke-width="2.5" fill="none" stroke-linecap="round" opacity="0.33"/><path d="M690,490.3 q28,-4.9 56,0" stroke="#a9c8d0" stroke-width="2.5" fill="none" stroke-linecap="round" opacity="0.24"/><path d="M286,490.3 q38,-4.9 75,0" stroke="#a9c8d0" stroke-width="2.5" fill="none" stroke-linecap="round" opacity="0.21"/><path d="M584,490.3 q13,-4.9 27,0" stroke="#a9c8d0" stroke-width="2.5" fill="none" stroke-linecap="round" opacity="0.24"/><path d="M519,490.3 q23,-4.9 46,0" stroke="#a9c8d0" stroke-width="2.5" fill="none" stroke-linecap="round" opacity="0.33"/><path d="M319,490.3 q12,-4.9 23,0" stroke="#a9c8d0" stroke-width="2.5" fill="none" stroke-linecap="round" opacity="0.32"/><path d="M45,490.3 q20,-4.9 39,0" stroke="#a9c8d0" stroke-width="2.5" fill="none" stroke-linecap="round" opacity="0.35"/><path d="M756,490.3 q29,-4.9 58,0" stroke="#a9c8d0" stroke-width="2.5" fill="none" stroke-linecap="round" opacity="0.20"/><path d="M573,490.3 q31,-4.9 62,0" stroke="#a9c8d0" stroke-width="2.5" fill="none" stroke-linecap="round" opacity="0.21"/><path d="M442,520.0 q45,-5.2 90,0" stroke="#a9c8d0" stroke-width="2.7" fill="none" stroke-linecap="round" opacity="0.35"/><path d="M637,520.0 q40,-5.2 81,0" stroke="#a9c8d0" stroke-width="2.7" fill="none" stroke-linecap="round" opacity="0.37"/><path d="M885,520.0 q48,-5.2 96,0" stroke="#a9c8d0" stroke-width="2.7" fill="none" stroke-linecap="round" opacity="0.23"/><path d="M510,520.0 q16,-5.2 33,0" stroke="#a9c8d0" stroke-width="2.7" fill="none" stroke-linecap="round" opacity="0.24"/><path d="M415,520.0 q25,-5.2 50,0" stroke="#a9c8d0" stroke-width="2.7" fill="none" stroke-linecap="round" opacity="0.35"/><path d="M836,520.0 q16,-5.2 31,0" stroke="#a9c8d0" stroke-width="2.7" fill="none" stroke-linecap="round" opacity="0.27"/><path d="M375,520.0 q55,-5.2 109,0" stroke="#a9c8d0" stroke-width="2.7" fill="none" stroke-linecap="round" opacity="0.31"/><path d="M507,520.0 q24,-5.2 47,0" stroke="#a9c8d0" stroke-width="2.7" fill="none" stroke-linecap="round" opacity="0.28"/><path d="M-24,520.0 q40,-5.2 80,0" stroke="#a9c8d0" stroke-width="2.7" fill="none" stroke-linecap="round" opacity="0.31"/><path d="M498,520.0 q49,-5.2 98,0" stroke="#a9c8d0" stroke-width="2.7" fill="none" stroke-linecap="round" opacity="0.32"/><path d="M115,520.0 q32,-5.2 64,0" stroke="#a9c8d0" stroke-width="2.7" fill="none" stroke-linecap="round" opacity="0.33"/><path d="M174,520.0 q16,-5.2 31,0" stroke="#a9c8d0" stroke-width="2.7" fill="none" stroke-linecap="round" opacity="0.34"/><path d="M-80.0,512.0 C-66.7,512.0 -38.3,510.0 0.0,512.0 C38.3,514.0 100.0,524.7 150.0,524.0 C200.0,523.3 250.0,507.3 300.0,508.0 C350.0,508.7 400.0,527.0 450.0,528.0 C500.0,529.0 550.0,513.7 600.0,514.0 C650.0,514.3 700.0,529.3 750.0,530.0 C800.0,530.7 861.7,520.0 900.0,518.0 C938.3,516.0 966.7,518.0 980.0,518.0 L980.0,679.0 L-80.0,679.0 Z" fill="#ffffff" opacity=".65" filter="url(#soft2C)"/><path d="M-80.0,548.0 C-66.7,548.0 -38.3,546.3 0.0,548.0 C38.3,549.7 100.0,558.7 150.0,558.0 C200.0,557.3 250.0,543.3 300.0,544.0 C350.0,544.7 400.0,561.0 450.0,562.0 C500.0,563.0 550.0,549.7 600.0,550.0 C650.0,550.3 700.0,563.7 750.0,564.0 C800.0,564.3 861.7,554.0 900.0,552.0 C938.3,550.0 966.7,552.0 980.0,552.0 L980.0,679.0 L-80.0,679.0 Z" fill="#c3aa82"/><path d="M450.0,560 L900,196 L900,675 L450.0,675 Z" fill="#3d4a2c"/><path d="M504.00000000000006,572 C630.0,520 738.0,360 900,250 L900,675 L504.00000000000006,675 Z" fill="#c3aa82"/><path d="M576.0,586 C684.0,546 792.0,430 900,336 L900,675 L576.0,675 Z" fill="#d8c39f"/><path d="M626,460 q6,26 -2,52" stroke="#a98f6a" stroke-width="2" fill="none" opacity=".18"/><path d="M595,535 q6,26 -2,52" stroke="#a98f6a" stroke-width="2" fill="none" opacity=".18"/><path d="M624,420 q6,26 -2,52" stroke="#a98f6a" stroke-width="2" fill="none" opacity=".18"/><path d="M822,536 q6,26 -2,52" stroke="#a98f6a" stroke-width="2" fill="none" opacity=".18"/><path d="M757,477 q6,26 -2,52" stroke="#a98f6a" stroke-width="2" fill="none" opacity=".18"/><path d="M741,520 q6,26 -2,52" stroke="#a98f6a" stroke-width="2" fill="none" opacity=".18"/><path d="M635,478 q6,26 -2,52" stroke="#a98f6a" stroke-width="2" fill="none" opacity=".18"/><path d="M764,421 q6,26 -2,52" stroke="#a98f6a" stroke-width="2" fill="none" opacity=".18"/><path d="M705,301 q6,26 -2,52" stroke="#a98f6a" stroke-width="2" fill="none" opacity=".18"/><path d="M750,412 q6,26 -2,52" stroke="#a98f6a" stroke-width="2" fill="none" opacity=".18"/><path d="M770,418 q6,26 -2,52" stroke="#a98f6a" stroke-width="2" fill="none" opacity=".18"/><path d="M874,478 q6,26 -2,52" stroke="#a98f6a" stroke-width="2" fill="none" opacity=".18"/><path d="M779,357 q6,26 -2,52" stroke="#a98f6a" stroke-width="2" fill="none" opacity=".18"/><path d="M700,546 q6,26 -2,52" stroke="#a98f6a" stroke-width="2" fill="none" opacity=".18"/><path d="M630,560 q-13,-32 -40,-50" stroke="#5d4622" stroke-width="6" fill="none" stroke-linecap="round"/><ellipse cx="583" cy="501" rx="50" ry="24" fill="#57663f" transform="rotate(-20 583 501)"/><path d="M720,452 q-16,-41 -51,-64" stroke="#5d4622" stroke-width="8" fill="none" stroke-linecap="round"/><ellipse cx="660" cy="376" rx="64" ry="31" fill="#57663f" transform="rotate(-20 660 376)"/><path d="M810,348 q-14,-36 -44,-56" stroke="#5d4622" stroke-width="7" fill="none" stroke-linecap="round"/><ellipse cx="758" cy="282" rx="56" ry="27" fill="#57663f" transform="rotate(-20 758 282)"/><path d="M882,268 q-12,-31 -37,-48" stroke="#5d4622" stroke-width="6" fill="none" stroke-linecap="round"/><ellipse cx="838" cy="212" rx="48" ry="23" fill="#57663f" transform="rotate(-20 838 212)"/><path d="M-80.0,606.0 C-66.7,606.0 -38.3,604.3 0.0,606.0 C38.3,607.7 100.0,617.0 150.0,616.0 C200.0,615.0 250.0,599.3 300.0,600.0 C350.0,600.7 400.0,619.0 450.0,620.0 C500.0,621.0 550.0,605.7 600.0,606.0 C650.0,606.3 700.0,621.3 750.0,622.0 C800.0,622.7 861.7,612.0 900.0,610.0 C938.3,608.0 966.7,610.0 980.0,610.0 L980.0,679.0 L-80.0,679.0 Z" fill="#e6d5b8"/><path d="M23.3,627.8 Q17.3,609.2 3.4,597.8" stroke="#3d4a2c" stroke-width="1.37" fill="none" stroke-linecap="round" opacity="1.00"/><path d="M32.5,627.8 Q31.6,618.6 29.3,612.9" stroke="#3d4a2c" stroke-width="1.37" fill="none" stroke-linecap="round" opacity="1.00"/><path d="M35.1,627.8 Q29.0,609.8 14.8,598.8" stroke="#3d4a2c" stroke-width="1.37" fill="none" stroke-linecap="round" opacity="1.00"/><path d="M32.5,627.8 Q34.7,610.0 39.7,599.0" stroke="#3d4a2c" stroke-width="1.37" fill="none" stroke-linecap="round" opacity="1.00"/><path d="M22.6,627.8 Q24.0,608.5 27.3,596.7" stroke="#3d4a2c" stroke-width="1.37" fill="none" stroke-linecap="round" opacity="1.00"/><path d="M23.6,627.8 Q22.0,617.2 18.4,610.8" stroke="#3d4a2c" stroke-width="1.37" fill="none" stroke-linecap="round" opacity="1.00"/><path d="M35.1,627.8 Q32.3,616.1 25.8,608.9" stroke="#3d4a2c" stroke-width="1.37" fill="none" stroke-linecap="round" opacity="1.00"/><path d="M28.2,627.8 Q31.9,614.8 40.5,606.8" stroke="#3d4a2c" stroke-width="1.37" fill="none" stroke-linecap="round" opacity="1.00"/><path d="M80.2,672.1 Q79.6,650.8 78.2,637.8" stroke="#3d4a2c" stroke-width="1.51" fill="none" stroke-linecap="round" opacity="1.00"/><path d="M70.3,672.1 Q79.6,653.5 101.3,642.1" stroke="#3d4a2c" stroke-width="1.51" fill="none" stroke-linecap="round" opacity="1.00"/><path d="M77.5,672.1 Q74.8,653.3 68.5,641.7" stroke="#3d4a2c" stroke-width="1.51" fill="none" stroke-linecap="round" opacity="1.00"/><path d="M80.1,672.1 Q76.5,655.5 68.2,645.3" stroke="#3d4a2c" stroke-width="1.51" fill="none" stroke-linecap="round" opacity="1.00"/><path d="M72.4,672.1 Q71.2,653.5 68.5,642.1" stroke="#3d4a2c" stroke-width="1.51" fill="none" stroke-linecap="round" opacity="1.00"/><path d="M76.5,672.1 Q69.7,657.0 53.8,647.7" stroke="#3d4a2c" stroke-width="1.51" fill="none" stroke-linecap="round" opacity="1.00"/><path d="M418.2,644.5 Q427.7,626.6 449.8,615.6" stroke="#3d4a2c" stroke-width="1.50" fill="none" stroke-linecap="round" opacity="1.00"/><path d="M421.4,644.5 Q429.3,628.7 447.7,619.0" stroke="#3d4a2c" stroke-width="1.50" fill="none" stroke-linecap="round" opacity="1.00"/><path d="M418.4,644.5 Q411.6,625.9 395.5,614.4" stroke="#3d4a2c" stroke-width="1.50" fill="none" stroke-linecap="round" opacity="1.00"/><path d="M418.8,644.5 Q419.9,625.4 422.5,613.7" stroke="#3d4a2c" stroke-width="1.50" fill="none" stroke-linecap="round" opacity="1.00"/><path d="M420.3,644.5 Q416.4,631.7 407.2,623.8" stroke="#3d4a2c" stroke-width="1.50" fill="none" stroke-linecap="round" opacity="1.00"/><path d="M420.5,644.5 Q412.6,628.9 394.4,619.4" stroke="#3d4a2c" stroke-width="1.50" fill="none" stroke-linecap="round" opacity="1.00"/><path d="M430.7,644.5 Q434.9,624.5 444.7,612.3" stroke="#3d4a2c" stroke-width="1.50" fill="none" stroke-linecap="round" opacity="1.00"/><path d="M420.6,644.5 Q412.6,627.5 394.2,617.1" stroke="#3d4a2c" stroke-width="1.50" fill="none" stroke-linecap="round" opacity="1.00"/><path d="M420.4,644.5 Q416.0,632.8 405.6,625.5" stroke="#3d4a2c" stroke-width="1.50" fill="none" stroke-linecap="round" opacity="1.00"/><path d="M124.1,652.4 Q125.6,643.9 129.0,638.8" stroke="#3d4a2c" stroke-width="1.10" fill="none" stroke-linecap="round" opacity="1.00"/><path d="M131.6,652.4 Q127.3,639.4 117.3,631.5" stroke="#3d4a2c" stroke-width="1.10" fill="none" stroke-linecap="round" opacity="1.00"/><path d="M124.3,652.4 Q121.9,642.0 116.0,635.6" stroke="#3d4a2c" stroke-width="1.10" fill="none" stroke-linecap="round" opacity="1.00"/><path d="M129.7,652.4 Q128.4,639.9 125.3,632.2" stroke="#3d4a2c" stroke-width="1.10" fill="none" stroke-linecap="round" opacity="1.00"/><path d="M127.3,652.4 Q126.1,644.7 123.3,640.0" stroke="#3d4a2c" stroke-width="1.10" fill="none" stroke-linecap="round" opacity="1.00"/><path d="M272.5,672.9 Q277.6,662.2 289.5,655.7" stroke="#3d4a2c" stroke-width="0.96" fill="none" stroke-linecap="round" opacity="1.00"/><path d="M274.3,672.9 Q277.4,664.0 284.5,658.4" stroke="#3d4a2c" stroke-width="0.96" fill="none" stroke-linecap="round" opacity="1.00"/><path d="M272.0,672.9 Q270.7,660.6 267.6,653.0" stroke="#3d4a2c" stroke-width="0.96" fill="none" stroke-linecap="round" opacity="1.00"/><path d="M274.0,672.9 Q277.3,659.2 285.0,650.7" stroke="#3d4a2c" stroke-width="0.96" fill="none" stroke-linecap="round" opacity="1.00"/><path d="M273.1,672.9 Q268.6,659.8 258.1,651.7" stroke="#3d4a2c" stroke-width="0.96" fill="none" stroke-linecap="round" opacity="1.00"/><path d="M277.9,672.9 Q279.9,662.4 284.6,656.0" stroke="#3d4a2c" stroke-width="0.96" fill="none" stroke-linecap="round" opacity="1.00"/><path d="M276.7,672.9 Q275.8,665.4 273.8,660.8" stroke="#3d4a2c" stroke-width="0.96" fill="none" stroke-linecap="round" opacity="1.00"/><path d="M274.5,672.9 Q275.0,666.9 276.1,663.1" stroke="#3d4a2c" stroke-width="0.96" fill="none" stroke-linecap="round" opacity="1.00"/><path d="M432.2,661.7 Q435.7,652.8 443.7,647.4" stroke="#3d4a2c" stroke-width="0.90" fill="none" stroke-linecap="round" opacity="1.00"/><path d="M429.8,661.7 Q434.2,651.2 444.5,644.9" stroke="#3d4a2c" stroke-width="0.90" fill="none" stroke-linecap="round" opacity="1.00"/><path d="M428.0,661.7 Q425.9,652.4 421.0,646.7" stroke="#3d4a2c" stroke-width="0.90" fill="none" stroke-linecap="round" opacity="1.00"/><path d="M427.1,661.7 Q431.1,652.8 440.4,647.4" stroke="#3d4a2c" stroke-width="0.90" fill="none" stroke-linecap="round" opacity="1.00"/><path d="M433.3,661.7 Q434.2,655.7 436.3,652.0" stroke="#3d4a2c" stroke-width="0.90" fill="none" stroke-linecap="round" opacity="1.00"/><path d="M434.1,661.7 Q430.4,653.1 421.7,647.9" stroke="#3d4a2c" stroke-width="0.90" fill="none" stroke-linecap="round" opacity="1.00"/><path d="M434.6,661.7 Q433.7,652.7 431.7,647.2" stroke="#3d4a2c" stroke-width="0.90" fill="none" stroke-linecap="round" opacity="1.00"/><path d="M571.5,643.6 Q578.7,627.8 595.4,618.1" stroke="#3d4a2c" stroke-width="1.25" fill="none" stroke-linecap="round" opacity="1.00"/><path d="M570.2,643.6 Q567.4,634.9 560.9,629.6" stroke="#3d4a2c" stroke-width="1.25" fill="none" stroke-linecap="round" opacity="1.00"/><path d="M574.8,643.6 Q567.3,629.1 549.8,620.2" stroke="#3d4a2c" stroke-width="1.25" fill="none" stroke-linecap="round" opacity="1.00"/><path d="M568.1,643.6 Q567.7,635.4 566.8,630.3" stroke="#3d4a2c" stroke-width="1.25" fill="none" stroke-linecap="round" opacity="1.00"/><path d="M579.4,643.6 Q578.0,628.1 574.7,618.6" stroke="#3d4a2c" stroke-width="1.25" fill="none" stroke-linecap="round" opacity="1.00"/><path d="M569.1,643.6 Q566.4,634.4 560.0,628.8" stroke="#3d4a2c" stroke-width="1.25" fill="none" stroke-linecap="round" opacity="1.00"/><path d="M570.2,643.6 Q570.6,635.4 571.4,630.4" stroke="#3d4a2c" stroke-width="1.25" fill="none" stroke-linecap="round" opacity="1.00"/><path d="M567.0,643.6 Q560.3,625.7 544.9,614.7" stroke="#3d4a2c" stroke-width="1.25" fill="none" stroke-linecap="round" opacity="1.00"/><path d="M579.2,643.6 Q574.7,627.3 564.3,617.4" stroke="#3d4a2c" stroke-width="1.25" fill="none" stroke-linecap="round" opacity="1.00"/><path d="M162.6,649.8 Q158.3,627.6 148.2,614.0" stroke="#3d4a2c" stroke-width="1.61" fill="none" stroke-linecap="round" opacity="1.00"/><path d="M161.3,649.8 Q163.5,627.5 168.6,613.8" stroke="#3d4a2c" stroke-width="1.61" fill="none" stroke-linecap="round" opacity="1.00"/><path d="M160.3,649.8 Q155.8,634.8 145.2,625.6" stroke="#3d4a2c" stroke-width="1.61" fill="none" stroke-linecap="round" opacity="1.00"/><path d="M164.5,649.8 Q170.3,630.5 183.7,618.7" stroke="#3d4a2c" stroke-width="1.61" fill="none" stroke-linecap="round" opacity="1.00"/><path d="M169.1,649.8 Q177.2,630.3 195.9,618.4" stroke="#3d4a2c" stroke-width="1.61" fill="none" stroke-linecap="round" opacity="1.00"/><path d="M167.1,649.8 Q161.3,632.7 147.6,622.3" stroke="#3d4a2c" stroke-width="1.61" fill="none" stroke-linecap="round" opacity="1.00"/><path d="M168.8,649.8 Q170.9,626.6 175.6,612.5" stroke="#3d4a2c" stroke-width="1.61" fill="none" stroke-linecap="round" opacity="1.00"/><path d="M162.5,649.8 Q156.4,635.6 142.2,626.8" stroke="#3d4a2c" stroke-width="1.61" fill="none" stroke-linecap="round" opacity="1.00"/><path d="M182.5,659.8 Q184.4,645.6 188.7,636.9" stroke="#3d4a2c" stroke-width="1.46" fill="none" stroke-linecap="round" opacity="1.00"/><path d="M184.2,659.8 Q173.7,638.8 149.1,626.0" stroke="#3d4a2c" stroke-width="1.46" fill="none" stroke-linecap="round" opacity="1.00"/><path d="M196.3,659.8 Q194.4,650.4 190.0,644.7" stroke="#3d4a2c" stroke-width="1.46" fill="none" stroke-linecap="round" opacity="1.00"/><path d="M193.1,659.8 Q189.8,647.3 182.2,639.7" stroke="#3d4a2c" stroke-width="1.46" fill="none" stroke-linecap="round" opacity="1.00"/><path d="M182.0,659.8 Q179.2,644.3 172.7,634.9" stroke="#3d4a2c" stroke-width="1.46" fill="none" stroke-linecap="round" opacity="1.00"/><path d="M186.7,659.8 Q189.6,650.2 196.4,644.4" stroke="#3d4a2c" stroke-width="1.46" fill="none" stroke-linecap="round" opacity="1.00"/><path d="M502.3,657.4 Q508.9,642.6 524.2,633.5" stroke="#3d4a2c" stroke-width="1.15" fill="none" stroke-linecap="round" opacity="1.00"/><path d="M503.0,657.4 Q504.7,643.3 508.7,634.7" stroke="#3d4a2c" stroke-width="1.15" fill="none" stroke-linecap="round" opacity="1.00"/><path d="M497.8,657.4 Q496.0,643.3 492.0,634.7" stroke="#3d4a2c" stroke-width="1.15" fill="none" stroke-linecap="round" opacity="1.00"/><path d="M497.7,657.4 Q493.1,644.8 482.4,637.1" stroke="#3d4a2c" stroke-width="1.15" fill="none" stroke-linecap="round" opacity="1.00"/><path d="M494.9,657.4 Q502.5,642.8 520.0,633.8" stroke="#3d4a2c" stroke-width="1.15" fill="none" stroke-linecap="round" opacity="1.00"/><path d="M503.0,657.4 Q497.4,646.2 484.2,639.4" stroke="#3d4a2c" stroke-width="1.15" fill="none" stroke-linecap="round" opacity="1.00"/><path d="M497.1,657.4 Q496.7,645.5 495.8,638.2" stroke="#3d4a2c" stroke-width="1.15" fill="none" stroke-linecap="round" opacity="1.00"/><path d="M504.3,657.4 Q500.0,647.2 489.9,641.0" stroke="#3d4a2c" stroke-width="1.15" fill="none" stroke-linecap="round" opacity="1.00"/><path d="M503.9,657.4 Q503.2,647.1 501.6,640.9" stroke="#3d4a2c" stroke-width="1.15" fill="none" stroke-linecap="round" opacity="1.00"/><path d="M181.3,639.9 Q180.1,632.4 177.3,627.9" stroke="#3d4a2c" stroke-width="1.10" fill="none" stroke-linecap="round" opacity="1.00"/><path d="M182.5,639.9 Q184.6,632.2 189.5,627.5" stroke="#3d4a2c" stroke-width="1.10" fill="none" stroke-linecap="round" opacity="1.00"/><path d="M179.9,639.9 Q176.6,625.4 169.1,616.6" stroke="#3d4a2c" stroke-width="1.10" fill="none" stroke-linecap="round" opacity="1.00"/><path d="M188.2,639.9 Q185.7,624.7 179.8,615.4" stroke="#3d4a2c" stroke-width="1.10" fill="none" stroke-linecap="round" opacity="1.00"/><path d="M179.8,639.9 Q182.6,633.0 189.2,628.8" stroke="#3d4a2c" stroke-width="1.10" fill="none" stroke-linecap="round" opacity="1.00"/><path d="M188.6,639.9 Q187.4,631.7 184.4,626.6" stroke="#3d4a2c" stroke-width="1.10" fill="none" stroke-linecap="round" opacity="1.00"/><path d="M183.1,639.9 Q187.6,630.5 198.1,624.7" stroke="#3d4a2c" stroke-width="1.10" fill="none" stroke-linecap="round" opacity="1.00"/><path d="M183.8,639.9 Q179.2,626.1 168.3,617.6" stroke="#3d4a2c" stroke-width="1.10" fill="none" stroke-linecap="round" opacity="1.00"/><path d="M178.9,639.9 Q181.3,626.0 186.8,617.4" stroke="#3d4a2c" stroke-width="1.10" fill="none" stroke-linecap="round" opacity="1.00"/><path d="M512.7,665.2 Q513.5,654.8 515.3,648.5" stroke="#3d4a2c" stroke-width="0.96" fill="none" stroke-linecap="round" opacity="1.00"/><path d="M512.0,665.2 Q509.4,655.9 503.2,650.2" stroke="#3d4a2c" stroke-width="0.96" fill="none" stroke-linecap="round" opacity="1.00"/><path d="M509.8,665.2 Q507.7,652.7 502.8,645.0" stroke="#3d4a2c" stroke-width="0.96" fill="none" stroke-linecap="round" opacity="1.00"/><path d="M505.4,665.2 Q506.8,651.2 510.0,642.6" stroke="#3d4a2c" stroke-width="0.96" fill="none" stroke-linecap="round" opacity="1.00"/><path d="M504.8,665.2 Q509.5,651.8 520.4,643.6" stroke="#3d4a2c" stroke-width="0.96" fill="none" stroke-linecap="round" opacity="1.00"/><path d="M504.8,665.2 Q505.5,656.2 506.9,650.7" stroke="#3d4a2c" stroke-width="0.96" fill="none" stroke-linecap="round" opacity="1.00"/><path d="M140.6,620.5 Q148.2,605.9 165.8,596.9" stroke="#3d4a2c" stroke-width="1.59" fill="none" stroke-linecap="round" opacity="1.00"/><path d="M147.0,620.5 Q156.2,601.6 177.8,590.0" stroke="#3d4a2c" stroke-width="1.59" fill="none" stroke-linecap="round" opacity="1.00"/><path d="M145.2,620.5 Q135.2,600.4 111.8,588.1" stroke="#3d4a2c" stroke-width="1.59" fill="none" stroke-linecap="round" opacity="1.00"/><path d="M146.1,620.5 Q153.4,598.4 170.4,584.9" stroke="#3d4a2c" stroke-width="1.59" fill="none" stroke-linecap="round" opacity="1.00"/><path d="M142.1,620.5 Q147.1,604.8 158.6,595.2" stroke="#3d4a2c" stroke-width="1.59" fill="none" stroke-linecap="round" opacity="1.00"/><path d="M140.3,620.5 Q133.9,607.0 118.9,598.7" stroke="#3d4a2c" stroke-width="1.59" fill="none" stroke-linecap="round" opacity="1.00"/><path d="M143.2,620.5 Q150.7,599.2 168.4,586.2" stroke="#3d4a2c" stroke-width="1.59" fill="none" stroke-linecap="round" opacity="1.00"/><path d="M14.5,640.3 Q15.7,633.2 18.6,628.8" stroke="#3d4a2c" stroke-width="0.93" fill="none" stroke-linecap="round" opacity="1.00"/><path d="M12.5,640.3 Q11.6,626.7 9.6,618.4" stroke="#3d4a2c" stroke-width="0.93" fill="none" stroke-linecap="round" opacity="1.00"/><path d="M12.1,640.3 Q9.5,630.1 3.5,623.9" stroke="#3d4a2c" stroke-width="0.93" fill="none" stroke-linecap="round" opacity="1.00"/><path d="M12.8,640.3 Q12.5,631.6 11.9,626.3" stroke="#3d4a2c" stroke-width="0.93" fill="none" stroke-linecap="round" opacity="1.00"/><path d="M10.6,640.3 Q15.1,628.5 25.6,621.2" stroke="#3d4a2c" stroke-width="0.93" fill="none" stroke-linecap="round" opacity="1.00"/><path d="M12.5,640.3 Q7.2,629.9 -5.0,623.5" stroke="#3d4a2c" stroke-width="0.93" fill="none" stroke-linecap="round" opacity="1.00"/><path d="M14.4,640.3 Q11.6,628.2 5.0,620.7" stroke="#3d4a2c" stroke-width="0.93" fill="none" stroke-linecap="round" opacity="1.00"/><ellipse cx="493" cy="647" rx="10" ry="4" fill="#a98f6a" opacity=".55"/><ellipse cx="61" cy="640" rx="6" ry="3" fill="#a98f6a" opacity=".55"/><ellipse cx="87" cy="622" rx="9" ry="3" fill="#a98f6a" opacity=".55"/><ellipse cx="336" cy="640" rx="12" ry="6" fill="#a98f6a" opacity=".55"/><ellipse cx="416" cy="656" rx="11" ry="7" fill="#a98f6a" opacity=".55"/><ellipse cx="538" cy="629" rx="7" ry="4" fill="#a98f6a" opacity=".55"/><ellipse cx="115" cy="662" rx="12" ry="3" fill="#a98f6a" opacity=".55"/><ellipse cx="91" cy="670" rx="6" ry="3" fill="#a98f6a" opacity=".55"/><ellipse cx="484" cy="635" rx="5" ry="5" fill="#a98f6a" opacity=".55"/></svg>
