<svg xmlns="http://www.w3.org/2000/svg" viewBox="0 0 1600 620" width="1600" height="620" preserveAspectRatio="xMidYMid slice" role="img" aria-label="Ruhige See in der blauen Stunde"><title>Ruhige See in der blauen Stunde</title><defs><linearGradient id="skyK4" x1="0" y1="0" x2="0" y2="1"><stop offset="0%" stop-color="#0f2a3a"/><stop offset="52%" stop-color="#1f4a60"/><stop offset="100%" stop-color="#4a7d92"/></linearGradient><linearGradient id="seaK4" x1="0" y1="0" x2="0" y2="1"><stop offset="0%" stop-color="#2f7787"/><stop offset="100%" stop-color="#123a46"/></linearGradient><radialGradient id="glowK4" cx="50%" cy="50%" r="50%"><stop offset="0%" stop-color="#ffd9a0" stop-opacity=".85"/><stop offset="45%" stop-color="#ffd9a0" stop-opacity=".22"/><stop offset="100%" stop-color="#ffd9a0" stop-opacity="0"/></radialGradient><linearGradient id="glitK4" x1="0" y1="0" x2="0" y2="1"><stop offset="0%" stop-color="#ffd9a0" stop-opacity=".55"/><stop offset="100%" stop-color="#ffd9a0" stop-opacity="0"/></linearGradient><filter id="softK4" filterUnits="userSpaceOnUse" x="-120" y="-120" width="1840" height="860"><feGaussianBlur stdDeviation="14"/></filter><filter id="soft2K4" filterUnits="userSpaceOnUse" x="-120" y="-120" width="1840" height="860"><feGaussianBlur stdDeviation="5"/></filter></defs><rect width="1600" height="620" fill="url(#skyK4)"/><g filter="url(#softK4)"><ellipse cx="833" cy="120" rx="226" ry="26" fill="#ffffff" opacity="0.20"/><ellipse cx="901" cy="85" rx="124" ry="31" fill="#ffffff" opacity="0.14"/><ellipse cx="1258" cy="140" rx="415" ry="36" fill="#ffffff" opacity="0.11"/><ellipse cx="1383" cy="89" rx="228" ry="43" fill="#ffffff" opacity="0.17"/><ellipse cx="761" cy="130" rx="182" ry="16" fill="#ffffff" opacity="0.23"/><ellipse cx="816" cy="108" rx="100" ry="19" fill="#ffffff" opacity="0.19"/><ellipse cx="1395" cy="150" rx="312" ry="37" fill="#ffffff" opacity="0.25"/><ellipse cx="1489" cy="98" rx="171" ry="45" fill="#ffffff" opacity="0.20"/><ellipse cx="624" cy="77" rx="260" ry="26" fill="#ffffff" opacity="0.19"/><ellipse cx="702" cy="40" rx="143" ry="31" fill="#ffffff" opacity="0.13"/><ellipse cx="694" cy="154" rx="208" ry="17" fill="#ffffff" opacity="0.22"/><ellipse cx="756" cy="131" rx="114" ry="20" fill="#ffffff" opacity="0.16"/></g><rect y="268" width="1600" height="150" fill="url(#seaK4)"/><path d="M426,273.0 q7,-2.2 15,0" stroke="#a9c8d0" stroke-width="0.8" fill="none" stroke-linecap="round" opacity="0.15"/><path d="M936,273.0 q15,-2.2 29,0" stroke="#a9c8d0" stroke-width="0.8" fill="none" stroke-linecap="round" opacity="0.09"/><path d="M-73,273.0 q14,-2.2 27,0" stroke="#a9c8d0" stroke-width="0.8" fill="none" stroke-linecap="round" opacity="0.14"/><path d="M1340,280.2 q12,-2.5 25,0" stroke="#a9c8d0" stroke-width="1.0" fill="none" stroke-linecap="round" opacity="0.12"/><path d="M677,280.2 q10,-2.5 20,0" stroke="#a9c8d0" stroke-width="1.0" fill="none" stroke-linecap="round" opacity="0.17"/><path d="M1339,280.2 q26,-2.5 51,0" stroke="#a9c8d0" stroke-width="1.0" fill="none" stroke-linecap="round" opacity="0.10"/><path d="M536,280.2 q10,-2.5 19,0" stroke="#a9c8d0" stroke-width="1.0" fill="none" stroke-linecap="round" opacity="0.16"/><path d="M-26,291.2 q18,-2.9 36,0" stroke="#a9c8d0" stroke-width="1.2" fill="none" stroke-linecap="round" opacity="0.14"/><path d="M841,291.2 q38,-2.9 76,0" stroke="#a9c8d0" stroke-width="1.2" fill="none" stroke-linecap="round" opacity="0.18"/><path d="M665,291.2 q41,-2.9 82,0" stroke="#a9c8d0" stroke-width="1.2" fill="none" stroke-linecap="round" opacity="0.12"/><path d="M382,291.2 q38,-2.9 76,0" stroke="#a9c8d0" stroke-width="1.2" fill="none" stroke-linecap="round" opacity="0.13"/><path d="M-12,291.2 q38,-2.9 76,0" stroke="#a9c8d0" stroke-width="1.2" fill="none" stroke-linecap="round" opacity="0.17"/><path d="M16,304.5 q20,-3.2 39,0" stroke="#a9c8d0" stroke-width="1.4" fill="none" stroke-linecap="round" opacity="0.21"/><path d="M565,304.5 q16,-3.2 33,0" stroke="#a9c8d0" stroke-width="1.4" fill="none" stroke-linecap="round" opacity="0.13"/><path d="M1083,304.5 q16,-3.2 32,0" stroke="#a9c8d0" stroke-width="1.4" fill="none" stroke-linecap="round" opacity="0.19"/><path d="M1275,304.5 q24,-3.2 48,0" stroke="#a9c8d0" stroke-width="1.4" fill="none" stroke-linecap="round" opacity="0.18"/><path d="M576,304.5 q15,-3.2 30,0" stroke="#a9c8d0" stroke-width="1.4" fill="none" stroke-linecap="round" opacity="0.15"/><path d="M1334,304.5 q26,-3.2 53,0" stroke="#a9c8d0" stroke-width="1.4" fill="none" stroke-linecap="round" opacity="0.18"/><path d="M349,319.5 q28,-3.5 56,0" stroke="#a9c8d0" stroke-width="1.6" fill="none" stroke-linecap="round" opacity="0.17"/><path d="M-8,319.5 q22,-3.5 43,0" stroke="#a9c8d0" stroke-width="1.6" fill="none" stroke-linecap="round" opacity="0.21"/><path d="M290,319.5 q25,-3.5 50,0" stroke="#a9c8d0" stroke-width="1.6" fill="none" stroke-linecap="round" opacity="0.22"/><path d="M1113,319.5 q36,-3.5 72,0" stroke="#a9c8d0" stroke-width="1.6" fill="none" stroke-linecap="round" opacity="0.21"/><path d="M489,319.5 q54,-3.5 107,0" stroke="#a9c8d0" stroke-width="1.6" fill="none" stroke-linecap="round" opacity="0.24"/><path d="M127,319.5 q42,-3.5 85,0" stroke="#a9c8d0" stroke-width="1.6" fill="none" stroke-linecap="round" opacity="0.21"/><path d="M1550,319.5 q43,-3.5 87,0" stroke="#a9c8d0" stroke-width="1.6" fill="none" stroke-linecap="round" opacity="0.20"/><path d="M103,335.9 q24,-3.9 48,0" stroke="#a9c8d0" stroke-width="1.9" fill="none" stroke-linecap="round" opacity="0.23"/><path d="M724,335.9 q23,-3.9 46,0" stroke="#a9c8d0" stroke-width="1.9" fill="none" stroke-linecap="round" opacity="0.26"/><path d="M41,335.9 q36,-3.9 72,0" stroke="#a9c8d0" stroke-width="1.9" fill="none" stroke-linecap="round" opacity="0.21"/><path d="M800,335.9 q56,-3.9 112,0" stroke="#a9c8d0" stroke-width="1.9" fill="none" stroke-linecap="round" opacity="0.24"/><path d="M741,335.9 q35,-3.9 70,0" stroke="#a9c8d0" stroke-width="1.9" fill="none" stroke-linecap="round" opacity="0.22"/><path d="M1421,335.9 q48,-3.9 95,0" stroke="#a9c8d0" stroke-width="1.9" fill="none" stroke-linecap="round" opacity="0.20"/><path d="M307,335.9 q39,-3.9 78,0" stroke="#a9c8d0" stroke-width="1.9" fill="none" stroke-linecap="round" opacity="0.22"/><path d="M722,335.9 q34,-3.9 68,0" stroke="#a9c8d0" stroke-width="1.9" fill="none" stroke-linecap="round" opacity="0.22"/><path d="M-58,353.4 q25,-4.2 50,0" stroke="#a9c8d0" stroke-width="2.1" fill="none" stroke-linecap="round" opacity="0.20"/><path d="M174,353.4 q68,-4.2 136,0" stroke="#a9c8d0" stroke-width="2.1" fill="none" stroke-linecap="round" opacity="0.23"/><path d="M31,353.4 q53,-4.2 105,0" stroke="#a9c8d0" stroke-width="2.1" fill="none" stroke-linecap="round" opacity="0.18"/><path d="M626,353.4 q50,-4.2 101,0" stroke="#a9c8d0" stroke-width="2.1" fill="none" stroke-linecap="round" opacity="0.23"/><path d="M797,353.4 q68,-4.2 136,0" stroke="#a9c8d0" stroke-width="2.1" fill="none" stroke-linecap="round" opacity="0.28"/><path d="M580,353.4 q35,-4.2 71,0" stroke="#a9c8d0" stroke-width="2.1" fill="none" stroke-linecap="round" opacity="0.25"/><path d="M660,353.4 q73,-4.2 146,0" stroke="#a9c8d0" stroke-width="2.1" fill="none" stroke-linecap="round" opacity="0.28"/><path d="M1036,353.4 q31,-4.2 61,0" stroke="#a9c8d0" stroke-width="2.1" fill="none" stroke-linecap="round" opacity="0.21"/><path d="M-22,353.4 q51,-4.2 102,0" stroke="#a9c8d0" stroke-width="2.1" fill="none" stroke-linecap="round" opacity="0.22"/><path d="M-75,372.0 q66,-4.5 131,0" stroke="#a9c8d0" stroke-width="2.3" fill="none" stroke-linecap="round" opacity="0.22"/><path d="M1159,372.0 q74,-4.5 148,0" stroke="#a9c8d0" stroke-width="2.3" fill="none" stroke-linecap="round" opacity="0.21"/><path d="M1319,372.0 q57,-4.5 114,0" stroke="#a9c8d0" stroke-width="2.3" fill="none" stroke-linecap="round" opacity="0.29"/><path d="M398,372.0 q77,-4.5 155,0" stroke="#a9c8d0" stroke-width="2.3" fill="none" stroke-linecap="round" opacity="0.29"/><path d="M935,372.0 q58,-4.5 117,0" stroke="#a9c8d0" stroke-width="2.3" fill="none" stroke-linecap="round" opacity="0.18"/><path d="M1152,372.0 q23,-4.5 45,0" stroke="#a9c8d0" stroke-width="2.3" fill="none" stroke-linecap="round" opacity="0.21"/><path d="M645,372.0 q34,-4.5 69,0" stroke="#a9c8d0" stroke-width="2.3" fill="none" stroke-linecap="round" opacity="0.30"/><path d="M619,372.0 q47,-4.5 95,0" stroke="#a9c8d0" stroke-width="2.3" fill="none" stroke-linecap="round" opacity="0.26"/><path d="M805,372.0 q63,-4.5 125,0" stroke="#a9c8d0" stroke-width="2.3" fill="none" stroke-linecap="round" opacity="0.30"/><path d="M23,372.0 q32,-4.5 64,0" stroke="#a9c8d0" stroke-width="2.3" fill="none" stroke-linecap="round" opacity="0.20"/><path d="M1108,391.6 q69,-4.9 139,0" stroke="#a9c8d0" stroke-width="2.5" fill="none" stroke-linecap="round" opacity="0.26"/><path d="M1000,391.6 q62,-4.9 125,0" stroke="#a9c8d0" stroke-width="2.5" fill="none" stroke-linecap="round" opacity="0.33"/><path d="M1183,391.6 q40,-4.9 79,0" stroke="#a9c8d0" stroke-width="2.5" fill="none" stroke-linecap="round" opacity="0.20"/><path d="M1094,391.6 q26,-4.9 52,0" stroke="#a9c8d0" stroke-width="2.5" fill="none" stroke-linecap="round" opacity="0.22"/><path d="M-47,391.6 q31,-4.9 62,0" stroke="#a9c8d0" stroke-width="2.5" fill="none" stroke-linecap="round" opacity="0.33"/><path d="M1090,391.6 q77,-4.9 153,0" stroke="#a9c8d0" stroke-width="2.5" fill="none" stroke-linecap="round" opacity="0.31"/><path d="M1166,391.6 q65,-4.9 129,0" stroke="#a9c8d0" stroke-width="2.5" fill="none" stroke-linecap="round" opacity="0.27"/><path d="M-34,391.6 q42,-4.9 84,0" stroke="#a9c8d0" stroke-width="2.5" fill="none" stroke-linecap="round" opacity="0.34"/><path d="M771,391.6 q64,-4.9 129,0" stroke="#a9c8d0" stroke-width="2.5" fill="none" stroke-linecap="round" opacity="0.19"/><path d="M869,391.6 q84,-4.9 168,0" stroke="#a9c8d0" stroke-width="2.5" fill="none" stroke-linecap="round" opacity="0.22"/><path d="M1256,391.6 q39,-4.9 78,0" stroke="#a9c8d0" stroke-width="2.5" fill="none" stroke-linecap="round" opacity="0.21"/><path d="M-61,412.0 q43,-5.2 86,0" stroke="#a9c8d0" stroke-width="2.7" fill="none" stroke-linecap="round" opacity="0.28"/><path d="M1300,412.0 q65,-5.2 130,0" stroke="#a9c8d0" stroke-width="2.7" fill="none" stroke-linecap="round" opacity="0.27"/><path d="M1565,412.0 q54,-5.2 109,0" stroke="#a9c8d0" stroke-width="2.7" fill="none" stroke-linecap="round" opacity="0.21"/><path d="M1089,412.0 q72,-5.2 144,0" stroke="#a9c8d0" stroke-width="2.7" fill="none" stroke-linecap="round" opacity="0.29"/><path d="M1194,412.0 q23,-5.2 46,0" stroke="#a9c8d0" stroke-width="2.7" fill="none" stroke-linecap="round" opacity="0.22"/><path d="M990,412.0 q30,-5.2 60,0" stroke="#a9c8d0" stroke-width="2.7" fill="none" stroke-linecap="round" opacity="0.35"/><path d="M1158,412.0 q60,-5.2 119,0" stroke="#a9c8d0" stroke-width="2.7" fill="none" stroke-linecap="round" opacity="0.34"/><path d="M615,412.0 q45,-5.2 91,0" stroke="#a9c8d0" stroke-width="2.7" fill="none" stroke-linecap="round" opacity="0.27"/><path d="M127,412.0 q63,-5.2 125,0" stroke="#a9c8d0" stroke-width="2.7" fill="none" stroke-linecap="round" opacity="0.22"/><path d="M37,412.0 q85,-5.2 169,0" stroke="#a9c8d0" stroke-width="2.7" fill="none" stroke-linecap="round" opacity="0.28"/><path d="M789,412.0 q76,-5.2 153,0" stroke="#a9c8d0" stroke-width="2.7" fill="none" stroke-linecap="round" opacity="0.33"/><path d="M586,412.0 q92,-5.2 185,0" stroke="#a9c8d0" stroke-width="2.7" fill="none" stroke-linecap="round" opacity="0.21"/><path d="M-80.0,412.0 C-66.7,412.0 -57.8,410.7 0.0,412.0 C57.8,413.3 177.8,420.7 266.7,420.0 C355.6,419.3 444.4,407.3 533.3,408.0 C622.2,408.7 711.1,423.0 800.0,424.0 C888.9,425.0 977.8,413.7 1066.7,414.0 C1155.6,414.3 1244.4,425.7 1333.3,426.0 C1422.2,426.3 1542.2,417.7 1600.0,416.0 C1657.8,414.3 1666.7,416.0 1680.0,416.0 L1680.0,624.0 L-80.0,624.0 Z" fill="#c3aa82"/><path d="M-80.0,452.0 C-66.7,452.0 -57.8,453.7 0.0,452.0 C57.8,450.3 177.8,441.0 266.7,442.0 C355.6,443.0 444.4,457.0 533.3,458.0 C622.2,459.0 711.1,447.3 800.0,448.0 C888.9,448.7 977.8,461.7 1066.7,462.0 C1155.6,462.3 1244.4,451.0 1333.3,450.0 C1422.2,449.0 1542.2,455.0 1600.0,456.0 C1657.8,457.0 1666.7,456.0 1680.0,456.0 L1680.0,624.0 L-80.0,624.0 Z" fill="#d8c39f"/><path d="M-80.0,566.0 C-66.7,566.0 -57.8,567.7 0.0,566.0 C57.8,564.3 177.8,554.7 266.7,556.0 C355.6,557.3 444.4,573.3 533.3,574.0 C622.2,574.7 711.1,559.3 800.0,560.0 C888.9,560.7 977.8,577.7 1066.7,578.0 C1155.6,578.3 1244.4,563.3 1333.3,562.0 C1422.2,560.7 1542.2,568.7 1600.0,570.0 C1657.8,571.3 1666.7,570.0 1680.0,570.0 L1680.0,624.0 L-80.0,624.0 Z" fill="#c3aa82"/><path d="M269.9,596.2 Q278.4,576.4 298.4,564.2" stroke="#3d4a2c" stroke-width="1.40" fill="none" stroke-linecap="round" opacity="1.00"/><path d="M280.2,596.2 Q274.3,583.0 260.5,575.0" stroke="#3d4a2c" stroke-width="1.40" fill="none" stroke-linecap="round" opacity="1.00"/><path d="M279.6,596.2 Q279.8,580.6 280.2,571.1" stroke="#3d4a2c" stroke-width="1.40" fill="none" stroke-linecap="round" opacity="1.00"/><path d="M269.8,596.2 Q273.2,585.9 281.1,579.6" stroke="#3d4a2c" stroke-width="1.40" fill="none" stroke-linecap="round" opacity="1.00"/><path d="M278.6,596.2 Q275.7,586.9 269.0,581.1" stroke="#3d4a2c" stroke-width="1.40" fill="none" stroke-linecap="round" opacity="1.00"/><path d="M272.3,596.2 Q267.9,577.7 257.6,566.3" stroke="#3d4a2c" stroke-width="1.40" fill="none" stroke-linecap="round" opacity="1.00"/><path d="M266.8,596.2 Q264.8,580.8 260.3,571.3" stroke="#3d4a2c" stroke-width="1.40" fill="none" stroke-linecap="round" opacity="1.00"/><path d="M270.1,596.2 Q273.4,575.8 281.0,563.3" stroke="#3d4a2c" stroke-width="1.40" fill="none" stroke-linecap="round" opacity="1.00"/><path d="M507.9,562.1 Q500.2,540.1 482.5,526.7" stroke="#3d4a2c" stroke-width="1.78" fill="none" stroke-linecap="round" opacity="1.00"/><path d="M520.6,562.1 Q514.0,548.1 498.6,539.5" stroke="#3d4a2c" stroke-width="1.78" fill="none" stroke-linecap="round" opacity="1.00"/><path d="M519.4,562.1 Q530.7,537.8 556.9,523.0" stroke="#3d4a2c" stroke-width="1.78" fill="none" stroke-linecap="round" opacity="1.00"/><path d="M524.2,562.1 Q529.2,540.0 540.8,526.4" stroke="#3d4a2c" stroke-width="1.78" fill="none" stroke-linecap="round" opacity="1.00"/><path d="M513.1,562.1 Q504.6,543.2 484.7,531.5" stroke="#3d4a2c" stroke-width="1.78" fill="none" stroke-linecap="round" opacity="1.00"/><path d="M1516.9,577.4 Q1512.8,563.5 1503.2,555.0" stroke="#3d4a2c" stroke-width="1.85" fill="none" stroke-linecap="round" opacity="1.00"/><path d="M1519.7,577.4 Q1510.4,559.4 1488.6,548.3" stroke="#3d4a2c" stroke-width="1.85" fill="none" stroke-linecap="round" opacity="1.00"/><path d="M1529.0,577.4 Q1536.6,554.5 1554.5,540.5" stroke="#3d4a2c" stroke-width="1.85" fill="none" stroke-linecap="round" opacity="1.00"/><path d="M1526.7,577.4 Q1525.3,564.1 1522.1,556.0" stroke="#3d4a2c" stroke-width="1.85" fill="none" stroke-linecap="round" opacity="1.00"/><path d="M1518.3,577.4 Q1518.0,553.5 1517.3,538.8" stroke="#3d4a2c" stroke-width="1.85" fill="none" stroke-linecap="round" opacity="1.00"/><path d="M1516.6,577.4 Q1517.5,561.1 1519.6,551.1" stroke="#3d4a2c" stroke-width="1.85" fill="none" stroke-linecap="round" opacity="1.00"/><path d="M1516.4,604.1 Q1517.1,591.7 1518.7,584.2" stroke="#3d4a2c" stroke-width="1.48" fill="none" stroke-linecap="round" opacity="1.00"/><path d="M1505.9,604.1 Q1511.9,592.0 1525.9,584.6" stroke="#3d4a2c" stroke-width="1.48" fill="none" stroke-linecap="round" opacity="1.00"/><path d="M1505.9,604.1 Q1506.9,585.6 1509.3,574.3" stroke="#3d4a2c" stroke-width="1.48" fill="none" stroke-linecap="round" opacity="1.00"/><path d="M1517.4,604.1 Q1522.0,592.6 1532.7,585.6" stroke="#3d4a2c" stroke-width="1.48" fill="none" stroke-linecap="round" opacity="1.00"/><path d="M1518.8,604.1 Q1514.7,587.9 1505.0,577.9" stroke="#3d4a2c" stroke-width="1.48" fill="none" stroke-linecap="round" opacity="1.00"/><path d="M1521.3,604.1 Q1526.2,591.1 1537.5,583.1" stroke="#3d4a2c" stroke-width="1.48" fill="none" stroke-linecap="round" opacity="1.00"/><path d="M130.7,608.8 Q137.8,594.1 154.3,585.1" stroke="#3d4a2c" stroke-width="1.35" fill="none" stroke-linecap="round" opacity="1.00"/><path d="M142.3,608.8 Q140.2,596.3 135.2,588.7" stroke="#3d4a2c" stroke-width="1.35" fill="none" stroke-linecap="round" opacity="1.00"/><path d="M130.6,608.8 Q136.1,595.9 149.0,588.0" stroke="#3d4a2c" stroke-width="1.35" fill="none" stroke-linecap="round" opacity="1.00"/><path d="M143.1,608.8 Q152.0,589.2 172.6,577.2" stroke="#3d4a2c" stroke-width="1.35" fill="none" stroke-linecap="round" opacity="1.00"/><path d="M137.7,608.8 Q133.7,595.3 124.4,587.0" stroke="#3d4a2c" stroke-width="1.35" fill="none" stroke-linecap="round" opacity="1.00"/><path d="M-22.4,569.8 Q-23.2,559.1 -25.2,552.5" stroke="#3d4a2c" stroke-width="1.59" fill="none" stroke-linecap="round" opacity="1.00"/><path d="M-23.9,569.8 Q-12.5,547.2 14.1,533.4" stroke="#3d4a2c" stroke-width="1.59" fill="none" stroke-linecap="round" opacity="1.00"/><path d="M-19.2,569.8 Q-26.2,555.8 -42.7,547.2" stroke="#3d4a2c" stroke-width="1.59" fill="none" stroke-linecap="round" opacity="1.00"/><path d="M-12.8,569.8 Q-8.0,550.1 3.1,538.0" stroke="#3d4a2c" stroke-width="1.59" fill="none" stroke-linecap="round" opacity="1.00"/><path d="M-17.2,569.8 Q-19.1,556.7 -23.6,548.6" stroke="#3d4a2c" stroke-width="1.59" fill="none" stroke-linecap="round" opacity="1.00"/><path d="M-10.9,569.8 Q-16.2,559.8 -28.5,553.6" stroke="#3d4a2c" stroke-width="1.59" fill="none" stroke-linecap="round" opacity="1.00"/><path d="M337.2,596.1 Q344.5,581.6 361.5,572.7" stroke="#3d4a2c" stroke-width="1.07" fill="none" stroke-linecap="round" opacity="1.00"/><path d="M338.5,596.1 Q344.0,581.1 356.8,571.8" stroke="#3d4a2c" stroke-width="1.07" fill="none" stroke-linecap="round" opacity="1.00"/><path d="M330.8,596.1 Q331.9,584.3 334.4,577.1" stroke="#3d4a2c" stroke-width="1.07" fill="none" stroke-linecap="round" opacity="1.00"/><path d="M339.4,596.1 Q341.1,584.9 345.2,578.1" stroke="#3d4a2c" stroke-width="1.07" fill="none" stroke-linecap="round" opacity="1.00"/><path d="M332.0,596.1 Q335.5,581.4 343.7,572.3" stroke="#3d4a2c" stroke-width="1.07" fill="none" stroke-linecap="round" opacity="1.00"/><path d="M333.6,596.1 Q341.5,580.9 359.9,571.6" stroke="#3d4a2c" stroke-width="1.07" fill="none" stroke-linecap="round" opacity="1.00"/><path d="M331.7,596.1 Q329.4,589.3 323.8,585.1" stroke="#3d4a2c" stroke-width="1.07" fill="none" stroke-linecap="round" opacity="1.00"/><path d="M332.9,596.1 Q330.0,589.3 323.4,585.0" stroke="#3d4a2c" stroke-width="1.07" fill="none" stroke-linecap="round" opacity="1.00"/><path d="M340.1,596.1 Q335.3,584.5 324.3,577.4" stroke="#3d4a2c" stroke-width="1.07" fill="none" stroke-linecap="round" opacity="1.00"/><path d="M725.7,576.5 Q725.8,565.7 726.2,559.1" stroke="#3d4a2c" stroke-width="1.51" fill="none" stroke-linecap="round" opacity="1.00"/><path d="M723.0,576.5 Q717.7,560.2 705.1,550.2" stroke="#3d4a2c" stroke-width="1.51" fill="none" stroke-linecap="round" opacity="1.00"/><path d="M716.7,576.5 Q717.8,556.3 720.4,543.9" stroke="#3d4a2c" stroke-width="1.51" fill="none" stroke-linecap="round" opacity="1.00"/><path d="M719.7,576.5 Q716.2,561.0 707.9,551.6" stroke="#3d4a2c" stroke-width="1.51" fill="none" stroke-linecap="round" opacity="1.00"/><path d="M723.8,576.5 Q719.9,566.5 710.6,560.4" stroke="#3d4a2c" stroke-width="1.51" fill="none" stroke-linecap="round" opacity="1.00"/><path d="M357.6,604.4 Q351.8,587.9 338.2,577.8" stroke="#3d4a2c" stroke-width="2.02" fill="none" stroke-linecap="round" opacity="1.00"/><path d="M365.5,604.4 Q368.6,583.7 376.0,571.1" stroke="#3d4a2c" stroke-width="2.02" fill="none" stroke-linecap="round" opacity="1.00"/><path d="M365.9,604.4 Q377.6,581.2 404.9,566.9" stroke="#3d4a2c" stroke-width="2.02" fill="none" stroke-linecap="round" opacity="1.00"/><path d="M370.6,604.4 Q373.8,580.4 381.3,565.7" stroke="#3d4a2c" stroke-width="2.02" fill="none" stroke-linecap="round" opacity="1.00"/><path d="M366.4,604.4 Q375.3,579.8 396.1,564.8" stroke="#3d4a2c" stroke-width="2.02" fill="none" stroke-linecap="round" opacity="1.00"/><path d="M1532.8,563.0 Q1529.9,533.2 1523.0,514.9" stroke="#3d4a2c" stroke-width="2.05" fill="none" stroke-linecap="round" opacity="1.00"/><path d="M1520.0,563.0 Q1526.3,546.9 1541.0,537.0" stroke="#3d4a2c" stroke-width="2.05" fill="none" stroke-linecap="round" opacity="1.00"/><path d="M1529.6,563.0 Q1535.7,544.8 1550.0,533.7" stroke="#3d4a2c" stroke-width="2.05" fill="none" stroke-linecap="round" opacity="1.00"/><path d="M1521.1,563.0 Q1520.0,533.1 1517.2,514.7" stroke="#3d4a2c" stroke-width="2.05" fill="none" stroke-linecap="round" opacity="1.00"/><path d="M1541.1,563.0 Q1553.8,534.6 1583.5,517.2" stroke="#3d4a2c" stroke-width="2.05" fill="none" stroke-linecap="round" opacity="1.00"/><path d="M1538.6,563.0 Q1535.7,547.2 1529.0,537.6" stroke="#3d4a2c" stroke-width="2.05" fill="none" stroke-linecap="round" opacity="1.00"/><path d="M1541.1,563.0 Q1535.0,535.9 1520.8,519.4" stroke="#3d4a2c" stroke-width="2.05" fill="none" stroke-linecap="round" opacity="1.00"/><path d="M1523.6,563.0 Q1524.3,547.1 1526.1,537.4" stroke="#3d4a2c" stroke-width="2.05" fill="none" stroke-linecap="round" opacity="1.00"/><path d="M420.2,613.3 Q424.9,595.9 435.7,585.3" stroke="#3d4a2c" stroke-width="1.67" fill="none" stroke-linecap="round" opacity="1.00"/><path d="M428.3,613.3 Q424.9,602.3 417.0,595.6" stroke="#3d4a2c" stroke-width="1.67" fill="none" stroke-linecap="round" opacity="1.00"/><path d="M413.8,613.3 Q405.9,590.1 387.6,575.9" stroke="#3d4a2c" stroke-width="1.67" fill="none" stroke-linecap="round" opacity="1.00"/><path d="M428.7,613.3 Q439.6,592.6 465.1,579.9" stroke="#3d4a2c" stroke-width="1.67" fill="none" stroke-linecap="round" opacity="1.00"/><path d="M425.6,613.3 Q435.4,591.4 458.2,578.1" stroke="#3d4a2c" stroke-width="1.67" fill="none" stroke-linecap="round" opacity="1.00"/><path d="M427.5,613.3 Q422.6,595.9 411.2,585.3" stroke="#3d4a2c" stroke-width="1.67" fill="none" stroke-linecap="round" opacity="1.00"/><path d="M413.6,613.3 Q413.9,602.2 414.7,595.4" stroke="#3d4a2c" stroke-width="1.67" fill="none" stroke-linecap="round" opacity="1.00"/><path d="M424.5,613.3 Q422.4,597.0 417.5,587.0" stroke="#3d4a2c" stroke-width="1.67" fill="none" stroke-linecap="round" opacity="1.00"/><path d="M412.0,613.3 Q405.9,593.1 391.9,580.8" stroke="#3d4a2c" stroke-width="1.67" fill="none" stroke-linecap="round" opacity="1.00"/><path d="M248.0,608.1 Q256.1,586.8 275.0,573.8" stroke="#3d4a2c" stroke-width="1.73" fill="none" stroke-linecap="round" opacity="1.00"/><path d="M235.1,608.1 Q241.6,592.4 256.7,582.7" stroke="#3d4a2c" stroke-width="1.73" fill="none" stroke-linecap="round" opacity="1.00"/><path d="M252.8,608.1 Q261.0,592.4 280.3,582.7" stroke="#3d4a2c" stroke-width="1.73" fill="none" stroke-linecap="round" opacity="1.00"/><path d="M236.5,608.1 Q230.2,594.7 215.7,586.4" stroke="#3d4a2c" stroke-width="1.73" fill="none" stroke-linecap="round" opacity="1.00"/><path d="M251.7,608.1 Q254.4,589.0 260.8,577.3" stroke="#3d4a2c" stroke-width="1.73" fill="none" stroke-linecap="round" opacity="1.00"/><path d="M245.7,608.1 Q251.4,592.7 264.8,583.2" stroke="#3d4a2c" stroke-width="1.73" fill="none" stroke-linecap="round" opacity="1.00"/><path d="M250.2,608.1 Q246.0,596.4 236.1,589.3" stroke="#3d4a2c" stroke-width="1.73" fill="none" stroke-linecap="round" opacity="1.00"/><path d="M240.1,608.1 Q238.3,596.4 234.2,589.3" stroke="#3d4a2c" stroke-width="1.73" fill="none" stroke-linecap="round" opacity="1.00"/><path d="M983.9,619.5 Q981.6,595.5 976.4,580.8" stroke="#3d4a2c" stroke-width="1.91" fill="none" stroke-linecap="round" opacity="1.00"/><path d="M980.3,619.5 Q976.7,604.3 968.2,595.0" stroke="#3d4a2c" stroke-width="1.91" fill="none" stroke-linecap="round" opacity="1.00"/><path d="M984.4,619.5 Q981.1,600.8 973.4,589.4" stroke="#3d4a2c" stroke-width="1.91" fill="none" stroke-linecap="round" opacity="1.00"/><path d="M980.2,619.5 Q977.2,598.8 970.1,586.1" stroke="#3d4a2c" stroke-width="1.91" fill="none" stroke-linecap="round" opacity="1.00"/><path d="M975.3,619.5 Q981.0,605.0 994.4,596.1" stroke="#3d4a2c" stroke-width="1.91" fill="none" stroke-linecap="round" opacity="1.00"/><path d="M989.7,619.5 Q1000.0,598.7 1024.0,586.0" stroke="#3d4a2c" stroke-width="1.91" fill="none" stroke-linecap="round" opacity="1.00"/><path d="M159.1,589.7 Q160.1,578.8 162.6,572.2" stroke="#3d4a2c" stroke-width="1.18" fill="none" stroke-linecap="round" opacity="1.00"/><path d="M148.7,589.7 Q143.8,580.2 132.4,574.4" stroke="#3d4a2c" stroke-width="1.18" fill="none" stroke-linecap="round" opacity="1.00"/><path d="M151.5,589.7 Q149.0,573.1 143.3,562.9" stroke="#3d4a2c" stroke-width="1.18" fill="none" stroke-linecap="round" opacity="1.00"/><path d="M151.0,589.7 Q153.0,580.6 157.8,575.1" stroke="#3d4a2c" stroke-width="1.18" fill="none" stroke-linecap="round" opacity="1.00"/><path d="M148.9,589.7 Q148.9,578.9 148.9,572.3" stroke="#3d4a2c" stroke-width="1.18" fill="none" stroke-linecap="round" opacity="1.00"/><path d="M155.5,589.7 Q151.1,579.7 140.8,573.6" stroke="#3d4a2c" stroke-width="1.18" fill="none" stroke-linecap="round" opacity="1.00"/><path d="M149.3,589.7 Q151.1,580.2 155.3,574.3" stroke="#3d4a2c" stroke-width="1.18" fill="none" stroke-linecap="round" opacity="1.00"/><path d="M151.3,589.7 Q153.2,582.1 157.5,577.4" stroke="#3d4a2c" stroke-width="1.18" fill="none" stroke-linecap="round" opacity="1.00"/><path d="M903.5,560.3 Q896.9,537.3 881.4,523.2" stroke="#3d4a2c" stroke-width="1.96" fill="none" stroke-linecap="round" opacity="1.00"/><path d="M908.1,560.3 Q901.2,542.3 885.3,531.3" stroke="#3d4a2c" stroke-width="1.96" fill="none" stroke-linecap="round" opacity="1.00"/><path d="M915.0,560.3 Q922.5,535.5 940.0,520.3" stroke="#3d4a2c" stroke-width="1.96" fill="none" stroke-linecap="round" opacity="1.00"/><path d="M916.5,560.3 Q920.5,538.5 930.0,525.2" stroke="#3d4a2c" stroke-width="1.96" fill="none" stroke-linecap="round" opacity="1.00"/><path d="M911.5,560.3 Q905.1,541.3 890.4,529.7" stroke="#3d4a2c" stroke-width="1.96" fill="none" stroke-linecap="round" opacity="1.00"/><path d="M914.4,560.3 Q914.4,536.2 914.4,521.5" stroke="#3d4a2c" stroke-width="1.96" fill="none" stroke-linecap="round" opacity="1.00"/><path d="M920.6,560.3 Q924.9,533.5 935.0,517.1" stroke="#3d4a2c" stroke-width="1.96" fill="none" stroke-linecap="round" opacity="1.00"/><path d="M912.5,560.3 Q921.8,536.5 943.3,522.0" stroke="#3d4a2c" stroke-width="1.96" fill="none" stroke-linecap="round" opacity="1.00"/><path d="M904.3,560.3 Q912.4,544.9 931.4,535.5" stroke="#3d4a2c" stroke-width="1.96" fill="none" stroke-linecap="round" opacity="1.00"/><path d="M486.5,616.2 Q481.6,595.6 470.2,583.0" stroke="#3d4a2c" stroke-width="1.70" fill="none" stroke-linecap="round" opacity="1.00"/><path d="M494.0,616.2 Q489.5,599.6 479.0,589.4" stroke="#3d4a2c" stroke-width="1.70" fill="none" stroke-linecap="round" opacity="1.00"/><path d="M487.4,616.2 Q490.5,596.4 497.8,584.3" stroke="#3d4a2c" stroke-width="1.70" fill="none" stroke-linecap="round" opacity="1.00"/><path d="M487.3,616.2 Q486.5,593.9 484.6,580.3" stroke="#3d4a2c" stroke-width="1.70" fill="none" stroke-linecap="round" opacity="1.00"/><path d="M497.9,616.2 Q499.1,604.9 501.9,598.0" stroke="#3d4a2c" stroke-width="1.70" fill="none" stroke-linecap="round" opacity="1.00"/><path d="M489.9,616.2 Q489.9,605.4 489.9,598.7" stroke="#3d4a2c" stroke-width="1.70" fill="none" stroke-linecap="round" opacity="1.00"/><path d="M487.2,616.2 Q482.5,596.2 471.7,584.0" stroke="#3d4a2c" stroke-width="1.70" fill="none" stroke-linecap="round" opacity="1.00"/><path d="M500.3,616.2 Q510.2,592.7 533.4,578.4" stroke="#3d4a2c" stroke-width="1.70" fill="none" stroke-linecap="round" opacity="1.00"/><path d="M809.7,583.7 Q809.5,558.5 809.1,543.1" stroke="#3d4a2c" stroke-width="1.98" fill="none" stroke-linecap="round" opacity="1.00"/><path d="M823.1,583.7 Q826.0,569.1 832.6,560.1" stroke="#3d4a2c" stroke-width="1.98" fill="none" stroke-linecap="round" opacity="1.00"/><path d="M825.1,583.7 Q824.8,569.1 824.2,560.1" stroke="#3d4a2c" stroke-width="1.98" fill="none" stroke-linecap="round" opacity="1.00"/><path d="M813.7,583.7 Q805.5,566.4 786.3,555.8" stroke="#3d4a2c" stroke-width="1.98" fill="none" stroke-linecap="round" opacity="1.00"/><path d="M820.2,583.7 Q818.6,570.4 815.0,562.2" stroke="#3d4a2c" stroke-width="1.98" fill="none" stroke-linecap="round" opacity="1.00"/><path d="M819.4,583.7 Q817.8,557.4 814.1,541.2" stroke="#3d4a2c" stroke-width="1.98" fill="none" stroke-linecap="round" opacity="1.00"/><path d="M811.3,583.7 Q807.0,559.5 796.8,544.6" stroke="#3d4a2c" stroke-width="1.98" fill="none" stroke-linecap="round" opacity="1.00"/><path d="M812.1,583.7 Q810.1,568.1 805.4,558.5" stroke="#3d4a2c" stroke-width="1.98" fill="none" stroke-linecap="round" opacity="1.00"/><path d="M817.4,583.7 Q817.3,569.6 817.1,560.9" stroke="#3d4a2c" stroke-width="1.98" fill="none" stroke-linecap="round" opacity="1.00"/><path d="M422.3,619.6 Q411.4,597.0 385.8,583.2" stroke="#3d4a2c" stroke-width="1.61" fill="none" stroke-linecap="round" opacity="1.00"/><path d="M420.7,619.6 Q424.2,596.6 432.3,582.6" stroke="#3d4a2c" stroke-width="1.61" fill="none" stroke-linecap="round" opacity="1.00"/><path d="M423.7,619.6 Q422.9,606.2 421.0,598.0" stroke="#3d4a2c" stroke-width="1.61" fill="none" stroke-linecap="round" opacity="1.00"/><path d="M428.8,619.6 Q421.7,603.2 405.2,593.2" stroke="#3d4a2c" stroke-width="1.61" fill="none" stroke-linecap="round" opacity="1.00"/><path d="M426.4,619.6 Q436.6,598.7 460.5,585.8" stroke="#3d4a2c" stroke-width="1.61" fill="none" stroke-linecap="round" opacity="1.00"/><path d="M429.8,619.6 Q433.0,606.1 440.3,597.9" stroke="#3d4a2c" stroke-width="1.61" fill="none" stroke-linecap="round" opacity="1.00"/><path d="M418.5,619.6 Q426.6,599.0 445.4,586.5" stroke="#3d4a2c" stroke-width="1.61" fill="none" stroke-linecap="round" opacity="1.00"/><path d="M419.1,619.6 Q416.3,599.9 409.7,587.8" stroke="#3d4a2c" stroke-width="1.61" fill="none" stroke-linecap="round" opacity="1.00"/><path d="M419.0,619.6 Q418.7,608.1 418.0,601.1" stroke="#3d4a2c" stroke-width="1.61" fill="none" stroke-linecap="round" opacity="1.00"/><path d="M823.2,586.6 Q825.6,574.0 831.1,566.3" stroke="#3d4a2c" stroke-width="1.31" fill="none" stroke-linecap="round" opacity="1.00"/><path d="M826.3,586.6 Q826.5,571.1 827.0,561.6" stroke="#3d4a2c" stroke-width="1.31" fill="none" stroke-linecap="round" opacity="1.00"/><path d="M827.3,586.6 Q827.8,570.9 828.9,561.3" stroke="#3d4a2c" stroke-width="1.31" fill="none" stroke-linecap="round" opacity="1.00"/><path d="M825.6,586.6 Q822.6,572.9 815.8,564.5" stroke="#3d4a2c" stroke-width="1.31" fill="none" stroke-linecap="round" opacity="1.00"/><path d="M820.2,586.6 Q816.4,577.6 807.3,572.1" stroke="#3d4a2c" stroke-width="1.31" fill="none" stroke-linecap="round" opacity="1.00"/><path d="M827.2,586.6 Q832.6,574.5 845.3,567.1" stroke="#3d4a2c" stroke-width="1.31" fill="none" stroke-linecap="round" opacity="1.00"/><path d="M823.9,586.6 Q827.7,569.5 836.6,559.1" stroke="#3d4a2c" stroke-width="1.31" fill="none" stroke-linecap="round" opacity="1.00"/><path d="M825.5,586.6 Q827.3,572.3 831.4,563.6" stroke="#3d4a2c" stroke-width="1.31" fill="none" stroke-linecap="round" opacity="1.00"/><path d="M884.9,608.0 Q875.7,587.2 854.4,574.4" stroke="#3d4a2c" stroke-width="1.61" fill="none" stroke-linecap="round" opacity="1.00"/><path d="M873.2,608.0 Q875.3,591.2 880.1,580.8" stroke="#3d4a2c" stroke-width="1.61" fill="none" stroke-linecap="round" opacity="1.00"/><path d="M884.6,608.0 Q888.9,597.5 898.7,591.0" stroke="#3d4a2c" stroke-width="1.61" fill="none" stroke-linecap="round" opacity="1.00"/><path d="M877.4,608.0 Q872.2,586.5 860.2,573.4" stroke="#3d4a2c" stroke-width="1.61" fill="none" stroke-linecap="round" opacity="1.00"/><path d="M888.0,608.0 Q883.7,591.9 873.6,582.0" stroke="#3d4a2c" stroke-width="1.61" fill="none" stroke-linecap="round" opacity="1.00"/><path d="M877.9,608.0 Q870.4,588.0 853.0,575.7" stroke="#3d4a2c" stroke-width="1.61" fill="none" stroke-linecap="round" opacity="1.00"/><path d="M880.6,608.0 Q885.3,592.9 896.2,583.6" stroke="#3d4a2c" stroke-width="1.61" fill="none" stroke-linecap="round" opacity="1.00"/><path d="M643.2,580.4 Q648.4,560.0 660.8,547.4" stroke="#3d4a2c" stroke-width="1.61" fill="none" stroke-linecap="round" opacity="1.00"/><path d="M633.7,580.4 Q640.3,563.6 655.6,553.2" stroke="#3d4a2c" stroke-width="1.61" fill="none" stroke-linecap="round" opacity="1.00"/><path d="M632.1,580.4 Q639.7,557.4 657.4,543.3" stroke="#3d4a2c" stroke-width="1.61" fill="none" stroke-linecap="round" opacity="1.00"/><path d="M631.4,580.4 Q631.4,569.5 631.5,562.8" stroke="#3d4a2c" stroke-width="1.61" fill="none" stroke-linecap="round" opacity="1.00"/><path d="M638.7,580.4 Q629.6,557.9 608.1,544.1" stroke="#3d4a2c" stroke-width="1.61" fill="none" stroke-linecap="round" opacity="1.00"/><path d="M642.1,580.4 Q639.2,562.4 632.5,551.4" stroke="#3d4a2c" stroke-width="1.61" fill="none" stroke-linecap="round" opacity="1.00"/><path d="M852.8,572.0 Q858.4,550.6 871.4,537.6" stroke="#3d4a2c" stroke-width="1.73" fill="none" stroke-linecap="round" opacity="1.00"/><path d="M837.2,572.0 Q834.2,552.0 827.4,539.8" stroke="#3d4a2c" stroke-width="1.73" fill="none" stroke-linecap="round" opacity="1.00"/><path d="M839.0,572.0 Q835.3,559.7 826.8,552.1" stroke="#3d4a2c" stroke-width="1.73" fill="none" stroke-linecap="round" opacity="1.00"/><path d="M849.2,572.0 Q851.2,556.9 855.7,547.7" stroke="#3d4a2c" stroke-width="1.73" fill="none" stroke-linecap="round" opacity="1.00"/><path d="M836.4,572.0 Q836.0,555.2 835.1,544.9" stroke="#3d4a2c" stroke-width="1.73" fill="none" stroke-linecap="round" opacity="1.00"/><path d="M839.4,572.0 Q838.9,557.0 837.8,547.9" stroke="#3d4a2c" stroke-width="1.73" fill="none" stroke-linecap="round" opacity="1.00"/><path d="M850.9,572.0 Q853.1,557.9 858.1,549.3" stroke="#3d4a2c" stroke-width="1.73" fill="none" stroke-linecap="round" opacity="1.00"/><path d="M1222.4,604.5 Q1218.0,591.9 1207.7,584.3" stroke="#3d4a2c" stroke-width="1.91" fill="none" stroke-linecap="round" opacity="1.00"/><path d="M1232.3,604.5 Q1232.6,588.6 1233.4,578.8" stroke="#3d4a2c" stroke-width="1.91" fill="none" stroke-linecap="round" opacity="1.00"/><path d="M1236.5,604.5 Q1241.7,592.5 1253.6,585.2" stroke="#3d4a2c" stroke-width="1.91" fill="none" stroke-linecap="round" opacity="1.00"/><path d="M1218.1,604.5 Q1215.5,581.1 1209.4,566.8" stroke="#3d4a2c" stroke-width="1.91" fill="none" stroke-linecap="round" opacity="1.00"/><path d="M1230.6,604.5 Q1236.1,590.0 1248.9,581.2" stroke="#3d4a2c" stroke-width="1.91" fill="none" stroke-linecap="round" opacity="1.00"/><path d="M1229.1,604.5 Q1233.8,580.0 1244.9,564.9" stroke="#3d4a2c" stroke-width="1.91" fill="none" stroke-linecap="round" opacity="1.00"/><path d="M1219.1,604.5 Q1221.9,589.2 1228.3,579.9" stroke="#3d4a2c" stroke-width="1.91" fill="none" stroke-linecap="round" opacity="1.00"/><path d="M1223.7,604.5 Q1215.9,583.7 1197.8,571.0" stroke="#3d4a2c" stroke-width="1.91" fill="none" stroke-linecap="round" opacity="1.00"/><path d="M1225.2,604.5 Q1235.3,582.1 1258.9,568.4" stroke="#3d4a2c" stroke-width="1.91" fill="none" stroke-linecap="round" opacity="1.00"/><path d="M713.1,583.8 Q707.4,571.6 694.0,564.1" stroke="#3d4a2c" stroke-width="0.96" fill="none" stroke-linecap="round" opacity="1.00"/><path d="M716.1,583.8 Q713.2,571.5 706.5,563.9" stroke="#3d4a2c" stroke-width="0.96" fill="none" stroke-linecap="round" opacity="1.00"/><path d="M715.1,583.8 Q712.8,577.0 707.5,572.9" stroke="#3d4a2c" stroke-width="0.96" fill="none" stroke-linecap="round" opacity="1.00"/><path d="M712.0,583.8 Q714.2,571.1 719.4,563.3" stroke="#3d4a2c" stroke-width="0.96" fill="none" stroke-linecap="round" opacity="1.00"/><path d="M715.6,583.8 Q710.8,572.0 699.4,564.8" stroke="#3d4a2c" stroke-width="0.96" fill="none" stroke-linecap="round" opacity="1.00"/><path d="M711.4,583.8 Q715.7,572.4 725.9,565.4" stroke="#3d4a2c" stroke-width="0.96" fill="none" stroke-linecap="round" opacity="1.00"/><path d="M708.4,583.8 Q706.0,573.5 700.4,567.1" stroke="#3d4a2c" stroke-width="0.96" fill="none" stroke-linecap="round" opacity="1.00"/><path d="M259.1,564.4 Q257.0,555.9 252.1,550.6" stroke="#3d4a2c" stroke-width="1.27" fill="none" stroke-linecap="round" opacity="1.00"/><path d="M255.8,564.4 Q256.0,554.7 256.4,548.8" stroke="#3d4a2c" stroke-width="1.27" fill="none" stroke-linecap="round" opacity="1.00"/><path d="M258.8,564.4 Q262.1,554.8 269.8,548.9" stroke="#3d4a2c" stroke-width="1.27" fill="none" stroke-linecap="round" opacity="1.00"/><path d="M260.7,564.4 Q263.8,555.4 271.1,549.9" stroke="#3d4a2c" stroke-width="1.27" fill="none" stroke-linecap="round" opacity="1.00"/><path d="M250.6,564.4 Q250.6,548.5 250.5,538.8" stroke="#3d4a2c" stroke-width="1.27" fill="none" stroke-linecap="round" opacity="1.00"/><path d="M259.5,564.4 Q255.7,548.1 246.7,538.2" stroke="#3d4a2c" stroke-width="1.27" fill="none" stroke-linecap="round" opacity="1.00"/><path d="M247.3,564.4 Q250.4,553.7 257.6,547.2" stroke="#3d4a2c" stroke-width="1.27" fill="none" stroke-linecap="round" opacity="1.00"/><path d="M213.5,586.8 Q217.7,572.3 227.6,563.5" stroke="#3d4a2c" stroke-width="1.82" fill="none" stroke-linecap="round" opacity="1.00"/><path d="M216.6,586.8 Q218.6,571.6 223.2,562.3" stroke="#3d4a2c" stroke-width="1.82" fill="none" stroke-linecap="round" opacity="1.00"/><path d="M207.6,586.8 Q204.2,563.5 196.4,549.3" stroke="#3d4a2c" stroke-width="1.82" fill="none" stroke-linecap="round" opacity="1.00"/><path d="M211.7,586.8 Q211.0,572.2 209.3,563.2" stroke="#3d4a2c" stroke-width="1.82" fill="none" stroke-linecap="round" opacity="1.00"/><path d="M209.7,586.8 Q214.7,570.3 226.2,560.2" stroke="#3d4a2c" stroke-width="1.82" fill="none" stroke-linecap="round" opacity="1.00"/><path d="M201.6,586.8 Q208.3,560.1 224.2,543.8" stroke="#3d4a2c" stroke-width="1.82" fill="none" stroke-linecap="round" opacity="1.00"/><path d="M211.5,586.8 Q204.1,569.3 186.9,558.5" stroke="#3d4a2c" stroke-width="1.82" fill="none" stroke-linecap="round" opacity="1.00"/><path d="M881.0,589.2 Q881.1,581.6 881.3,577.0" stroke="#3d4a2c" stroke-width="1.10" fill="none" stroke-linecap="round" opacity="1.00"/><path d="M877.1,589.2 Q871.8,577.2 859.5,569.8" stroke="#3d4a2c" stroke-width="1.10" fill="none" stroke-linecap="round" opacity="1.00"/><path d="M877.6,589.2 Q876.4,576.2 873.6,568.2" stroke="#3d4a2c" stroke-width="1.10" fill="none" stroke-linecap="round" opacity="1.00"/><path d="M878.1,589.2 Q876.8,578.6 873.9,572.1" stroke="#3d4a2c" stroke-width="1.10" fill="none" stroke-linecap="round" opacity="1.00"/><path d="M878.8,589.2 Q871.2,573.4 853.6,563.8" stroke="#3d4a2c" stroke-width="1.10" fill="none" stroke-linecap="round" opacity="1.00"/><path d="M888.0,589.2 Q885.3,574.6 879.2,565.6" stroke="#3d4a2c" stroke-width="1.10" fill="none" stroke-linecap="round" opacity="1.00"/><path d="M882.1,589.2 Q879.6,575.0 873.7,566.3" stroke="#3d4a2c" stroke-width="1.10" fill="none" stroke-linecap="round" opacity="1.00"/><path d="M886.6,589.2 Q889.2,576.8 895.4,569.3" stroke="#3d4a2c" stroke-width="1.10" fill="none" stroke-linecap="round" opacity="1.00"/><path d="M880.4,589.2 Q880.5,581.6 880.6,577.0" stroke="#3d4a2c" stroke-width="1.10" fill="none" stroke-linecap="round" opacity="1.00"/><path d="M1066.2,618.7 Q1068.1,605.7 1072.6,597.7" stroke="#3d4a2c" stroke-width="1.44" fill="none" stroke-linecap="round" opacity="1.00"/><path d="M1058.0,618.7 Q1065.4,602.6 1082.7,592.8" stroke="#3d4a2c" stroke-width="1.44" fill="none" stroke-linecap="round" opacity="1.00"/><path d="M1067.7,618.7 Q1076.0,598.7 1095.4,586.5" stroke="#3d4a2c" stroke-width="1.44" fill="none" stroke-linecap="round" opacity="1.00"/><path d="M1067.7,618.7 Q1064.0,606.4 1055.4,598.9" stroke="#3d4a2c" stroke-width="1.44" fill="none" stroke-linecap="round" opacity="1.00"/><path d="M1066.0,618.7 Q1060.2,599.3 1046.7,587.4" stroke="#3d4a2c" stroke-width="1.44" fill="none" stroke-linecap="round" opacity="1.00"/><path d="M1066.2,618.7 Q1065.6,601.6 1064.2,591.1" stroke="#3d4a2c" stroke-width="1.44" fill="none" stroke-linecap="round" opacity="1.00"/><path d="M1060.0,618.7 Q1060.5,600.4 1061.8,589.2" stroke="#3d4a2c" stroke-width="1.44" fill="none" stroke-linecap="round" opacity="1.00"/><path d="M1062.4,618.7 Q1063.9,607.2 1067.4,600.1" stroke="#3d4a2c" stroke-width="1.44" fill="none" stroke-linecap="round" opacity="1.00"/><path d="M1065.1,618.7 Q1064.7,598.4 1063.6,586.0" stroke="#3d4a2c" stroke-width="1.44" fill="none" stroke-linecap="round" opacity="1.00"/><path d="M1374.6,561.0 Q1374.7,544.3 1375.1,534.0" stroke="#3d4a2c" stroke-width="1.55" fill="none" stroke-linecap="round" opacity="1.00"/><path d="M1384.7,561.0 Q1378.1,547.0 1362.7,538.4" stroke="#3d4a2c" stroke-width="1.55" fill="none" stroke-linecap="round" opacity="1.00"/><path d="M1381.4,561.0 Q1382.9,547.8 1386.5,539.7" stroke="#3d4a2c" stroke-width="1.55" fill="none" stroke-linecap="round" opacity="1.00"/><path d="M1376.5,561.0 Q1384.5,539.5 1403.1,526.4" stroke="#3d4a2c" stroke-width="1.55" fill="none" stroke-linecap="round" opacity="1.00"/><path d="M1374.4,561.0 Q1381.2,542.1 1397.2,530.4" stroke="#3d4a2c" stroke-width="1.55" fill="none" stroke-linecap="round" opacity="1.00"/><path d="M1383.0,561.0 Q1384.5,549.7 1388.1,542.8" stroke="#3d4a2c" stroke-width="1.55" fill="none" stroke-linecap="round" opacity="1.00"/><path d="M1385.9,561.0 Q1395.5,542.1 1418.0,530.4" stroke="#3d4a2c" stroke-width="1.55" fill="none" stroke-linecap="round" opacity="1.00"/><path d="M1378.8,561.0 Q1382.2,542.5 1390.3,531.2" stroke="#3d4a2c" stroke-width="1.55" fill="none" stroke-linecap="round" opacity="1.00"/><path d="M990.1,604.9 Q995.2,593.4 1006.9,586.4" stroke="#3d4a2c" stroke-width="1.26" fill="none" stroke-linecap="round" opacity="1.00"/><path d="M991.0,604.9 Q995.4,595.9 1005.6,590.4" stroke="#3d4a2c" stroke-width="1.26" fill="none" stroke-linecap="round" opacity="1.00"/><path d="M994.8,604.9 Q993.2,591.9 989.3,583.9" stroke="#3d4a2c" stroke-width="1.26" fill="none" stroke-linecap="round" opacity="1.00"/><path d="M987.4,604.9 Q990.6,591.2 997.9,582.7" stroke="#3d4a2c" stroke-width="1.26" fill="none" stroke-linecap="round" opacity="1.00"/><path d="M988.2,604.9 Q982.0,589.0 967.5,579.3" stroke="#3d4a2c" stroke-width="1.26" fill="none" stroke-linecap="round" opacity="1.00"/><path d="M994.8,604.9 Q996.6,593.4 1000.7,586.3" stroke="#3d4a2c" stroke-width="1.26" fill="none" stroke-linecap="round" opacity="1.00"/><path d="M987.0,604.9 Q981.2,592.3 967.8,584.6" stroke="#3d4a2c" stroke-width="1.26" fill="none" stroke-linecap="round" opacity="1.00"/><path d="M995.5,604.9 Q991.5,588.5 982.1,578.4" stroke="#3d4a2c" stroke-width="1.26" fill="none" stroke-linecap="round" opacity="1.00"/><path d="M1377.4,584.5 Q1374.2,568.4 1366.8,558.6" stroke="#3d4a2c" stroke-width="1.98" fill="none" stroke-linecap="round" opacity="1.00"/><path d="M1382.7,584.5 Q1379.1,557.5 1370.5,540.9" stroke="#3d4a2c" stroke-width="1.98" fill="none" stroke-linecap="round" opacity="1.00"/><path d="M1384.5,584.5 Q1387.4,569.9 1394.2,560.9" stroke="#3d4a2c" stroke-width="1.98" fill="none" stroke-linecap="round" opacity="1.00"/><path d="M1383.0,584.5 Q1395.9,559.4 1425.9,543.9" stroke="#3d4a2c" stroke-width="1.98" fill="none" stroke-linecap="round" opacity="1.00"/><path d="M1378.0,584.5 Q1368.1,561.9 1345.1,548.0" stroke="#3d4a2c" stroke-width="1.98" fill="none" stroke-linecap="round" opacity="1.00"/><path d="M1388.7,584.5 Q1381.4,567.5 1364.5,557.1" stroke="#3d4a2c" stroke-width="1.98" fill="none" stroke-linecap="round" opacity="1.00"/><path d="M1385.9,584.5 Q1381.7,559.1 1371.7,543.5" stroke="#3d4a2c" stroke-width="1.98" fill="none" stroke-linecap="round" opacity="1.00"/><path d="M608.0,600.7 Q610.9,575.8 617.7,560.6" stroke="#3d4a2c" stroke-width="1.74" fill="none" stroke-linecap="round" opacity="1.00"/><path d="M604.9,600.7 Q605.4,581.0 606.6,569.0" stroke="#3d4a2c" stroke-width="1.74" fill="none" stroke-linecap="round" opacity="1.00"/><path d="M601.3,600.7 Q607.0,582.8 620.2,571.8" stroke="#3d4a2c" stroke-width="1.74" fill="none" stroke-linecap="round" opacity="1.00"/><path d="M602.9,600.7 Q604.4,586.4 607.9,577.6" stroke="#3d4a2c" stroke-width="1.74" fill="none" stroke-linecap="round" opacity="1.00"/><path d="M605.1,600.7 Q596.0,577.8 574.9,563.8" stroke="#3d4a2c" stroke-width="1.74" fill="none" stroke-linecap="round" opacity="1.00"/><path d="M615.4,600.7 Q608.7,585.5 593.1,576.3" stroke="#3d4a2c" stroke-width="1.74" fill="none" stroke-linecap="round" opacity="1.00"/><path d="M602.9,600.7 Q608.3,584.3 620.8,574.3" stroke="#3d4a2c" stroke-width="1.74" fill="none" stroke-linecap="round" opacity="1.00"/><path d="M803.6,574.6 Q804.1,565.3 805.1,559.6" stroke="#3d4a2c" stroke-width="1.42" fill="none" stroke-linecap="round" opacity="1.00"/><path d="M789.1,574.6 Q784.9,563.9 775.0,557.4" stroke="#3d4a2c" stroke-width="1.42" fill="none" stroke-linecap="round" opacity="1.00"/><path d="M800.2,574.6 Q797.7,564.4 791.9,558.1" stroke="#3d4a2c" stroke-width="1.42" fill="none" stroke-linecap="round" opacity="1.00"/><path d="M790.8,574.6 Q786.1,554.4 775.0,542.1" stroke="#3d4a2c" stroke-width="1.42" fill="none" stroke-linecap="round" opacity="1.00"/><path d="M803.5,574.6 Q804.8,563.9 807.8,557.3" stroke="#3d4a2c" stroke-width="1.42" fill="none" stroke-linecap="round" opacity="1.00"/><path d="M799.1,574.6 Q796.4,560.4 790.0,551.8" stroke="#3d4a2c" stroke-width="1.42" fill="none" stroke-linecap="round" opacity="1.00"/><path d="M788.6,574.6 Q792.7,563.8 802.1,557.1" stroke="#3d4a2c" stroke-width="1.42" fill="none" stroke-linecap="round" opacity="1.00"/><path d="M481.3,606.7 Q480.9,593.5 480.0,585.4" stroke="#3d4a2c" stroke-width="1.81" fill="none" stroke-linecap="round" opacity="1.00"/><path d="M489.0,606.7 Q497.8,581.3 518.5,565.7" stroke="#3d4a2c" stroke-width="1.81" fill="none" stroke-linecap="round" opacity="1.00"/><path d="M494.1,606.7 Q481.5,582.2 452.1,567.3" stroke="#3d4a2c" stroke-width="1.81" fill="none" stroke-linecap="round" opacity="1.00"/><path d="M490.4,606.7 Q497.8,580.2 515.0,564.0" stroke="#3d4a2c" stroke-width="1.81" fill="none" stroke-linecap="round" opacity="1.00"/><path d="M483.3,606.7 Q486.0,583.1 492.3,568.7" stroke="#3d4a2c" stroke-width="1.81" fill="none" stroke-linecap="round" opacity="1.00"/><path d="M480.4,606.7 Q489.7,587.5 511.5,575.7" stroke="#3d4a2c" stroke-width="1.81" fill="none" stroke-linecap="round" opacity="1.00"/><path d="M483.9,606.7 Q489.5,584.8 502.6,571.3" stroke="#3d4a2c" stroke-width="1.81" fill="none" stroke-linecap="round" opacity="1.00"/><rect y="556" width="1600" height="64" fill="#0d2830" opacity=".18"/></svg>
